<svg id="Group_3157" data-name="Group 3157" xmlns="http://www.w3.org/2000/svg" width="32.916" height="32.915" viewBox="0 0 32.916 32.915">
  <path id="Path_2307" data-name="Path 2307" d="M16.458,11.684a.75.75,0,0,1-.75-.75V.75a.75.75,0,0,1,1.5,0V10.934a.75.75,0,0,1-.75.75" fill="#fff"/>
  <path id="Path_2308" data-name="Path 2308" d="M16.458,32.915a.75.75,0,0,1-.75-.75V21.981a.75.75,0,0,1,1.5,0V32.165a.75.75,0,0,1-.75.75" fill="#fff"/>
  <path id="Path_2309" data-name="Path 2309" d="M10.935,17.207H.75a.75.75,0,0,1,0-1.5H10.935a.75.75,0,0,1,0,1.5" fill="#fff"/>
  <path id="Path_2310" data-name="Path 2310" d="M32.166,17.208H21.982a.75.75,0,0,1,0-1.5H32.166a.75.75,0,1,1,0,1.5" fill="#fff"/>
  <path id="Path_2311" data-name="Path 2311" d="M12.552,13.3a.744.744,0,0,1-.53-.22l-7.2-7.2A.75.75,0,0,1,5.881,4.82l7.2,7.2a.75.75,0,0,1-.53,1.28" fill="#fff"/>
  <path id="Path_2312" data-name="Path 2312" d="M27.565,28.315a.744.744,0,0,1-.53-.22l-7.2-7.2a.75.75,0,1,1,1.061-1.061l7.2,7.2a.75.75,0,0,1-.53,1.28" fill="#fff"/>
  <path id="Path_2313" data-name="Path 2313" d="M5.351,28.315a.75.75,0,0,1-.53-1.28l7.2-7.2a.75.75,0,1,1,1.061,1.061l-7.2,7.2a.744.744,0,0,1-.53.22" fill="#fff"/>
  <path id="Path_2314" data-name="Path 2314" d="M20.363,13.3a.75.75,0,0,1-.53-1.28l7.2-7.2a.75.75,0,0,1,1.061,1.061l-7.2,7.2a.744.744,0,0,1-.53.22" fill="#fff"/>
</svg>
