<svg xmlns="http://www.w3.org/2000/svg" width="570.475" height="121.112" viewBox="0 0 570.475 121.112">
  <g id="Group_706" data-name="Group 706" transform="translate(0 0.001)">
    <g id="Group_707" data-name="Group 707">
      <g id="Group_716" data-name="Group 716">
        <path id="Path_1145" data-name="Path 1145" d="M63.313,66.414c-19.228,0-24.748-17.478-24.748-31.922,0-14.719,5.06-32.842,24.748-32.842,19.87,0,24.746,18.031,24.746,32.842,0,14.995-4.324,31.922-24.746,31.922m0-49.493c-6.717,0-7.453,9.476-7.453,17.571,0,7.82.828,16.652,7.453,16.652s7.451-8.741,7.451-16.652c0-8.1-.828-17.571-7.451-17.571" fill="#d1282e"/>
        <path id="Path_1146" data-name="Path 1146" d="M118.052,65.31V2.753h22.079c10.119,0,16.927,0,23.183,4.416,6.807,4.875,11.039,14.259,11.039,26.679,0,10.487-2.944,19.318-8.74,24.931-6.623,6.531-13.983,6.531-25.574,6.531Zm17.019-13.8H139.3c5.979,0,10.763-.093,13.8-3.128,2.484-2.484,3.956-7.636,3.956-14.26,0-6.256-1.1-11.591-4.416-14.443-3.036-2.668-6.991-3.128-13.891-3.128h-3.68Z" fill="#d1282e"/>
        <path id="Path_1147" data-name="Path 1147" d="M201.218,16.829V26.58h26.955V40.472H201.218V51.143H232.68V65.31h-48.3V2.754h46.458V16.829Z" fill="#d1282e"/>
        <path id="Path_1148" data-name="Path 1148" d="M259.729,2.754v48.3H284.2V65.311H242.71V2.754Z" fill="#d1282e"/>
        <rect id="Rectangle_103" data-name="Rectangle 103" width="16.927" height="62.557" transform="translate(292.941 2.753)" fill="#d1282e"/>
        <path id="Path_1149" data-name="Path 1149" d="M356.694,2.754h18.124L355.867,65.311H335.628L317.045,2.754H334.8l8.74,32.842c1.2,4.508,2.208,9.384,2.208,9.384h.093s1.1-4.968,2.207-9.384Z" fill="#d1282e"/>
        <path id="Path_1150" data-name="Path 1150" d="M398.647,16.829V26.58H425.6V40.472H398.647V51.143h31.463V65.31h-48.3V2.754H428.27V16.829Z" fill="#d1282e"/>
        <path id="Path_1151" data-name="Path 1151" d="M464.885,43.231h-7.819v22.08H440.138V2.754h26.4c6.991,0,11.5.736,14.9,2.023,7.268,2.853,12.143,9.108,12.143,18.4,0,8.095-2.943,12.879-8.922,16.559a26.143,26.143,0,0,1-2.761,1.472l14.443,24.1H477.764Zm-7.819-13.523h10.487a14.387,14.387,0,0,0,5.7-.827c2.393-1.013,3.5-2.853,3.5-5.8s-1.1-4.784-3.5-5.8a14.367,14.367,0,0,0-5.7-.828H457.066Z" fill="#d1282e"/>
        <path id="Path_1152" data-name="Path 1152" d="M533.7,65.31H516.774V39.828L495.248,2.753h18.675L525.79,24.188,537.933,2.753h18.4L533.7,39.643Z" fill="#d1282e"/>
        <path id="Path_1153" data-name="Path 1153" d="M13.446,41.31C6.156,40.23,1.728,36.234,0,33.642L6.372,28.4A14.337,14.337,0,0,0,17.6,33.858c3.564,0,5.832-1.242,5.832-3.348s-2.214-2.646-4.752-3.078l-4.806-.81c-6.7-1.188-12.1-4-12.1-11.071,0-5.67,4.482-9.99,11.664-11.015V0h7.56V4.7a19.5,19.5,0,0,1,11.016,5.67l-5.94,5.561a14.008,14.008,0,0,0-9.558-4.05c-2.754,0-4.806,1.027-4.806,2.916s1.62,2.754,4.1,3.241l5.994,1.08c6.912,1.242,11.34,4,11.34,10.476,0,6.8-5.022,10.746-12.15,11.718v4.968h-7.56Z" fill="#d1282e"/>
      </g>
    </g>
    <g id="Group_709" data-name="Group 709">
      <g id="Group_717" data-name="Group 717" transform="translate(5)">
        <path id="Path_1155" data-name="Path 1155" d="M83.273,110.5a6.7,6.7,0,0,1,.312-1.871l1.56-5.422a7.321,7.321,0,0,0,.274-1.95,2.472,2.472,0,0,0-2.692-2.5c-2.223,0-4.719,2.106-5.694,6.085l-2.145,8.463h-2.73l3.588-14.236h-3.12L73.21,96.7h5.539l-.936,3.939c1.443-2.418,3.51-4.212,5.851-4.212a4.351,4.351,0,0,1,4.562,4.524,9.118,9.118,0,0,1-.429,2.614l-1.521,5.381A6.137,6.137,0,0,0,86,110.386a1.12,1.12,0,0,0,1.131,1.248c.781,0,1.444-.663,2.223-2.613l1.365.467c-.857,2.692-2.222,4.1-4.173,4.1a3,3,0,0,1-3.276-3.082"/>
        <path id="Path_1156" data-name="Path 1156" d="M87.329,118.927a1.782,1.782,0,0,1,1.833-1.833,1.712,1.712,0,0,1,1.716,1.6,2.726,2.726,0,0,0,1.6-.975,10.579,10.579,0,0,0,1.794-4.485l3.276-14.158H94.193l.624-2.379h5.968l-3.862,16.849c-.741,3.12-1.521,4.758-2.73,5.967a5.839,5.839,0,0,1-3.978,1.56c-1.677,0-2.886-.936-2.886-2.145M97.976,91.509a1.95,1.95,0,1,1,1.95,1.989,1.964,1.964,0,0,1-1.95-1.989"/>
        <path id="Path_1157" data-name="Path 1157" d="M103.591,106.367c0-5.148,4.017-9.984,9.4-9.984a6.949,6.949,0,0,1,7.215,7.255c0,5.187-4.017,9.984-9.4,9.984a6.927,6.927,0,0,1-7.215-7.255m13.847-2.729c0-3.043-1.99-4.876-4.564-4.876-3.627,0-6.514,3.472-6.514,7.645a4.478,4.478,0,0,0,4.564,4.835c3.665,0,6.514-3.47,6.514-7.6"/>
        <path id="Path_1158" data-name="Path 1158" d="M118.217,118.887a1.915,1.915,0,0,1,1.872-1.95,1.832,1.832,0,0,1,1.833,1.716H122c.936,0,2.808-1.4,6.358-5.694L125.51,99.075h-2.964l.585-2.379h4.8l2.418,13.883c2.887-3.744,5.616-7.6,6.2-10.1a2.246,2.246,0,0,1-1.6-2.107,2.007,2.007,0,0,1,2.029-1.989c1.326,0,2.261.976,2.261,2.692,0,2.574-1.911,6.2-8.034,13.884-5.46,6.786-7.917,8.152-10.374,8.152a2.429,2.429,0,0,1-2.613-2.224"/>
        <path id="Path_1159" data-name="Path 1159" d="M145.165,118.887a1.915,1.915,0,0,1,1.872-1.95,1.831,1.831,0,0,1,1.833,1.716h.078c.937,0,2.809-1.4,6.358-5.694l-2.847-13.884h-2.965l.586-2.379h4.8l2.418,13.883c2.886-3.744,5.616-7.6,6.2-10.1a2.245,2.245,0,0,1-1.6-2.107,2.006,2.006,0,0,1,2.028-1.989c1.326,0,2.262.976,2.262,2.692,0,2.574-1.911,6.2-8.034,13.884-5.461,6.786-7.918,8.152-10.375,8.152a2.43,2.43,0,0,1-2.613-2.224"/>
        <path id="Path_1160" data-name="Path 1160" d="M168.487,106.367c0-5.148,4.018-9.984,9.4-9.984a6.949,6.949,0,0,1,7.216,7.255c0,5.187-4.018,9.984-9.4,9.984a6.928,6.928,0,0,1-7.216-7.255m13.846-2.729c0-3.043-1.989-4.876-4.563-4.876-3.627,0-6.513,3.472-6.513,7.645a4.478,4.478,0,0,0,4.562,4.835c3.667,0,6.514-3.47,6.514-7.6"/>
        <path id="Path_1161" data-name="Path 1161" d="M194.814,96.7l-2.692,10.413a6.609,6.609,0,0,0-.235,1.794,2.317,2.317,0,0,0,2.536,2.379c2.3,0,4.8-2.184,5.772-6.084l2.106-8.5h2.73l-3,12.09a6.767,6.767,0,0,0-.312,1.639,1.087,1.087,0,0,0,1.131,1.209c.741,0,1.442-.664,2.222-2.614l1.366.468c-.9,2.809-2.379,4.1-4.213,4.1a2.9,2.9,0,0,1-3.041-3.159,6.558,6.558,0,0,1,.078-.781c-1.4,2.262-3.433,3.94-5.772,3.94a4.128,4.128,0,0,1-4.407-4.213,10.469,10.469,0,0,1,.349-2.5l2.03-7.8h-3.121l.623-2.379Z"/>
        <path id="Path_1162" data-name="Path 1162" d="M212.83,99.075h-3.12l.585-2.379h5.538l-1.092,4.6c2.146-3.16,4.018-4.875,5.694-4.875A2.084,2.084,0,0,1,222.7,98.49a2.156,2.156,0,0,1-2.105,2.145,1.994,1.994,0,0,1-1.99-1.56,11.166,11.166,0,0,0-4.757,6.864l-1.872,7.371h-2.731Z"/>
        <path id="Path_1163" data-name="Path 1163" d="M231.317,110.736H234.4l4.757-20.515h-3.47l.585-2.574h8.424a11.7,11.7,0,0,1,3.237.39,6.669,6.669,0,0,1,5.46,6.748c0,4.992-3.9,9.282-10.687,9.282-1.442,0-3.042-.039-3.822-.078l-1.6,6.747h3.549l-.585,2.574h-9.554Zm19.149-15.757a4.4,4.4,0,0,0-3.588-4.484,9.945,9.945,0,0,0-2.5-.274h-2.341l-2.573,11.194c.9.078,2.223.117,3.627.117,4.953,0,7.371-3.2,7.371-6.553"/>
        <path id="Path_1164" data-name="Path 1164" d="M253.507,106.875c0-5.655,4.017-10.491,8.815-10.491a5.123,5.123,0,0,1,5.186,4.133l1.054-3.938h2.612l-3,12.207a8.756,8.756,0,0,0-.272,1.639,1.06,1.06,0,0,0,1.092,1.209c.741,0,1.443-.663,2.222-2.614l1.366.468c-.9,2.809-2.379,4.1-4.173,4.1a2.9,2.9,0,0,1-3.081-3.043v-.39a7.581,7.581,0,0,1-5.929,3.472c-3.471,0-5.889-2.613-5.889-6.748m13.26-3.549c0-2.691-1.442-4.524-4.173-4.524-3.627,0-6.2,3.861-6.2,7.878,0,2.73,1.326,4.563,3.9,4.563,3.823,0,6.474-4.212,6.474-7.917"/>
        <path id="Path_1165" data-name="Path 1165" d="M286.54,110.5a6.7,6.7,0,0,1,.312-1.871l1.56-5.422a7.358,7.358,0,0,0,.273-1.95,2.472,2.472,0,0,0-2.691-2.5c-2.224,0-4.72,2.106-5.694,6.085l-2.146,8.463h-2.729l3.588-14.236h-3.12l.584-2.379h5.539l-.937,3.939c1.443-2.418,3.511-4.212,5.851-4.212a4.351,4.351,0,0,1,4.563,4.524,9.12,9.12,0,0,1-.43,2.614l-1.52,5.381a6.094,6.094,0,0,0-.274,1.444,1.121,1.121,0,0,0,1.132,1.248c.78,0,1.443-.663,2.223-2.613l1.365.467c-.858,2.692-2.223,4.1-4.174,4.1a3,3,0,0,1-3.275-3.082"/>
        <path id="Path_1166" data-name="Path 1166" d="M305.3,96.384a5.283,5.283,0,0,1,5.265,4.017l3.12-13.3h-3.159l.585-2.34h5.851l-5.617,24.025a7.169,7.169,0,0,0-.312,1.639c0,.779.39,1.209,1.093,1.209.779,0,1.481-.664,2.261-2.614l1.366.468c-.9,2.809-2.418,4.1-4.212,4.1a2.887,2.887,0,0,1-3.042-3.12,1.066,1.066,0,0,1,0-.352,7.5,7.5,0,0,1-5.929,3.511c-3.432,0-5.967-2.613-5.967-6.748,0-5.811,4.056-10.491,8.7-10.491m4.6,6.981c0-2.73-1.521-4.563-4.29-4.563-3.588,0-6.123,3.822-6.123,7.839,0,2.73,1.443,4.6,4.017,4.6,3.745,0,6.4-4.056,6.4-7.878"/>
        <path id="Path_1167" data-name="Path 1167" d="M318.09,106.875c0-5.655,4.018-10.491,8.815-10.491a5.124,5.124,0,0,1,5.187,4.133l1.053-3.938h2.613l-3,12.207a8.772,8.772,0,0,0-.273,1.639,1.06,1.06,0,0,0,1.092,1.209c.741,0,1.443-.663,2.223-2.614l1.366.468c-.9,2.809-2.38,4.1-4.174,4.1a2.9,2.9,0,0,1-3.081-3.043v-.39a7.577,7.577,0,0,1-5.928,3.472c-3.472,0-5.89-2.613-5.89-6.748m13.261-3.549c0-2.691-1.443-4.524-4.173-4.524-3.628,0-6.2,3.861-6.2,7.878,0,2.73,1.325,4.563,3.9,4.563,3.823,0,6.475-4.212,6.475-7.917"/>
        <path id="Path_1168" data-name="Path 1168" d="M347.185,110.736h3.081l4.758-20.515h-3.471l.585-2.574h18.33l-1.481,6.279h-2.809l.9-3.744H357.91l-2.145,9.283H363.8l-.585,2.5H355.18l-2.028,8.775h3.783l-.624,2.574h-9.75Z"/>
        <path id="Path_1169" data-name="Path 1169" d="M367.113,106.875c0-5.655,4.018-10.491,8.815-10.491a5.124,5.124,0,0,1,5.187,4.133l1.053-3.938h2.613l-3,12.207a8.772,8.772,0,0,0-.273,1.639,1.06,1.06,0,0,0,1.092,1.209c.741,0,1.443-.663,2.223-2.614l1.366.468c-.9,2.809-2.38,4.1-4.174,4.1a2.9,2.9,0,0,1-3.081-3.043v-.39A7.578,7.578,0,0,1,373,113.623c-3.472,0-5.89-2.613-5.89-6.748m13.261-3.549c0-2.691-1.443-4.524-4.173-4.524-3.628,0-6.2,3.861-6.2,7.878,0,2.73,1.325,4.563,3.9,4.563,3.823,0,6.475-4.212,6.475-7.917"/>
        <path id="Path_1170" data-name="Path 1170" d="M391.177,99.075h-3L388.8,96.7h4.837l2.027,13.768c3.081-3.433,5.539-7.294,6.241-9.947a2.075,2.075,0,0,1-1.56-2.027,2.041,2.041,0,0,1,2.067-2.106c1.248,0,2.262.975,2.262,2.691,0,3.2-4.1,9.517-9.282,14.781h-1.522Z"/>
        <path id="Path_1171" data-name="Path 1171" d="M407.166,106.367c0-5.148,4.018-9.984,9.4-9.984a6.949,6.949,0,0,1,7.216,7.255c0,5.187-4.018,9.984-9.4,9.984a6.928,6.928,0,0,1-7.216-7.255m13.846-2.729c0-3.043-1.989-4.876-4.563-4.876-3.627,0-6.513,3.472-6.513,7.645a4.478,4.478,0,0,0,4.562,4.835c3.667,0,6.514-3.47,6.514-7.6"/>
        <path id="Path_1172" data-name="Path 1172" d="M430.684,99.075h-3.12l.585-2.379h5.538l-1.092,4.6c2.145-3.16,4.017-4.875,5.694-4.875a2.085,2.085,0,0,1,2.262,2.067,2.156,2.156,0,0,1-2.106,2.145,1.992,1.992,0,0,1-1.989-1.56,11.17,11.17,0,0,0-4.758,6.864l-1.872,7.371H427.1Z"/>
        <path id="Path_1173" data-name="Path 1173" d="M442.811,110.464a8.271,8.271,0,0,1,.313-1.795l2.613-9.594H442.5l.624-2.379h5.967l-3.277,12.09a8.362,8.362,0,0,0-.272,1.639,1.088,1.088,0,0,0,1.131,1.209c.819,0,1.521-.663,2.261-2.613l1.366.467c-.9,2.809-2.3,4.1-4.212,4.1a2.992,2.992,0,0,1-3.277-3.12m3.433-18.955a1.969,1.969,0,1,1,1.989,1.989,2,2,0,0,1-1.989-1.989"/>
        <path id="Path_1174" data-name="Path 1174" d="M459.776,99.075l-2.34,9.517a5.253,5.253,0,0,0-.233,1.442,1.269,1.269,0,0,0,1.325,1.326c.9,0,1.834-.468,3.472-1.559l1.013,1.442c-2.027,1.639-3.666,2.38-5.225,2.38a3.15,3.15,0,0,1-3.433-3.159,7.144,7.144,0,0,1,.313-1.872l2.339-9.517h-2.963l.585-2.379h2.963l.975-3.9,3-.976L460.362,96.7h5.069l-.585,2.379Z"/>
        <path id="Path_1175" data-name="Path 1175" d="M469.254,105.822a5.774,5.774,0,0,0-.039.82c0,2.925,2.418,4.64,5.3,4.64a10.8,10.8,0,0,0,5.5-1.52l-.585,2.651a11.156,11.156,0,0,1-5.461,1.21c-3.9,0-7.449-2.5-7.449-7.02,0-5.616,4.251-10.219,9.205-10.219,3.86,0,6.356,2.34,6.356,6.084a10.056,10.056,0,0,1-.624,3.354Zm.429-2.106h9.556a4.662,4.662,0,0,0,.272-1.638c0-1.794-1.209-3.315-3.9-3.315-2.614,0-4.953,2.067-5.929,4.953"/>
        <path id="Path_1176" data-name="Path 1176" d="M485.478,111.438a2.941,2.941,0,0,1-.977-2.067,1.906,1.906,0,0,1,1.834-2.028,1.608,1.608,0,0,1,1.677,1.638,1.949,1.949,0,0,1-.508,1.248,2.751,2.751,0,0,0,.663.468,7.2,7.2,0,0,0,3.316.741c1.833,0,3.354-.819,3.354-2.3,0-1.521-1.638-2.3-3.432-3.159-2.418-1.131-4.6-2.224-4.6-4.72,0-2.651,2.223-4.758,6.006-4.758a7.162,7.162,0,0,1,5.109,1.794,2.812,2.812,0,0,1,.936,2.029,1.836,1.836,0,0,1-1.755,1.989,1.666,1.666,0,0,1-1.716-1.639,2.525,2.525,0,0,1,.43-1.248,3.516,3.516,0,0,0-.585-.35,6.313,6.313,0,0,0-2.5-.468c-1.951,0-3.237.9-3.237,2.184,0,1.326,1.6,2.067,3.548,3,2.34,1.093,4.525,2.341,4.525,4.875,0,3.2-2.731,4.916-6.2,4.916a8.565,8.565,0,0,1-5.888-2.146"/>
        <path id="Path_1178" data-name="Path 1178" d="M48.953,110.736h3.081l4.758-20.515H53.321l.585-2.574H72.588l-1.522,6.279H68.3l.857-3.744H59.678L57.65,99h8.229l-.546,2.5H57.065l-2.145,9.282h9.516l.9-3.744H68.1l-1.443,6.279H48.329Z"/>
      </g>
    </g>
    <path id="Path_1177" data-name="Path 1177" d="M563.924.941l.18,3.96-3.348-2.124L559.64,4.756l3.492,1.8-3.492,1.8,1.116,1.944L564.1,8.176l-.18,3.959h2.268l-.181-3.959,3.311,2.124,1.153-1.944-3.491-1.8,3.491-1.8-1.153-1.979L566.011,4.9l.181-3.96Z"/>
  </g>
</svg>
