<svg xmlns="http://www.w3.org/2000/svg" xmlns:xlink="http://www.w3.org/1999/xlink" width="226.056" height="55.121" viewBox="0 0 226.056 55.121">
  <defs>
    <clipPath id="clip-path">
      <rect id="Rectangle_101" data-name="Rectangle 101" width="226.056" height="55.121" fill="none"/>
    </clipPath>
  </defs>
  <g id="Group_693" data-name="Group 693" transform="translate(0 0)">
    <g id="Group_693-2" data-name="Group 693" transform="translate(0 0)" clip-path="url(#clip-path)">
      <path id="Path_1118" data-name="Path 1118" d="M21.742,50.688H1.058a1.058,1.058,0,1,1,0-2.116H21.742a1.058,1.058,0,1,1,0,2.116" transform="translate(0 -20.029)" fill="#1a1818"/>
      <path id="Path_1119" data-name="Path 1119" d="M27.6,34.486H10.608a1.058,1.058,0,1,1,0-2.116H27.6a1.058,1.058,0,1,1,0,2.116" transform="translate(-3.938 -13.348)" fill="#1a1818"/>
      <path id="Path_1120" data-name="Path 1120" d="M34.949,66.891H18.163a1.058,1.058,0,1,1,0-2.116H34.949a1.058,1.058,0,0,1,0,2.116" transform="translate(-7.053 -26.71)" fill="#1a1818"/>
      <path id="Path_1121" data-name="Path 1121" d="M96.467,22.52,91.351,51.449,71.275,62.833,55.818,52.088,49.171,21.267" transform="translate(-20.276 -8.77)" fill="#c11822"/>
      <path id="Path_1122" data-name="Path 1122" d="M70.533,63.149a1.055,1.055,0,0,1-.6-.189L54.472,52.215a1.058,1.058,0,0,1-.43-.646L47.394,20.749a1.058,1.058,0,0,1,2.068-.446l6.559,30.413L70.59,60.843l19.063-10.81,5.029-28.439a1.058,1.058,0,0,1,2.083.368L91.65,50.892a1.059,1.059,0,0,1-.52.736L71.054,63.011a1.06,1.06,0,0,1-.522.138" transform="translate(-19.534 -8.028)" fill="#1a1818"/>
      <path id="Path_1123" data-name="Path 1123" d="M49.17,13.24,76.237,1.8l20.23,12.607L70.846,26.948Z" transform="translate(-20.276 -0.742)" fill="#c11822"/>
      <path id="Path_1124" data-name="Path 1124" d="M70.1,27.263a1.055,1.055,0,0,1-.565-.163L47.862,13.391a1.058,1.058,0,0,1,.154-1.869L75.083.083a1.061,1.061,0,0,1,.971.077l20.23,12.608a1.057,1.057,0,0,1-.095,1.848L70.568,27.155a1.052,1.052,0,0,1-.465.108M50.7,12.684,70.169,25,93.546,13.554,75.4,2.245Z" transform="translate(-19.533 0)" fill="#1a1818"/>
      <path id="Path_1125" data-name="Path 1125" d="M86.309,71.9a1.057,1.057,0,0,1-1.056-1.016L84.208,44.526a1.058,1.058,0,0,1,2.114-.084l1.044,26.363a1.058,1.058,0,0,1-1.015,1.1h-.043" transform="translate(-34.724 -17.907)" fill="#1a1818"/>
      <path id="Path_1126" data-name="Path 1126" d="M88.467,75.247a1.058,1.058,0,0,1-.906-1.6L98.9,54.755a1.058,1.058,0,0,1,1.813,1.089L89.375,74.733a1.058,1.058,0,0,1-.908.514" transform="translate(-36.045 -22.367)" fill="#1a1818"/>
      <path id="Path_1127" data-name="Path 1127" d="M108.513,54.824a1.056,1.056,0,0,1-.579-.173L90.545,43.239a1.058,1.058,0,0,1,1.161-1.769l17.388,11.411a1.058,1.058,0,0,1-.581,1.942" transform="translate(-37.14 -17.029)" fill="#1a1818"/>
      <path id="Path_1128" data-name="Path 1128" d="M379.607,52.885A2.112,2.112,0,1,0,381.72,55a2.113,2.113,0,0,0-2.113-2.113m0,3.853a1.74,1.74,0,1,1,1.74-1.74,1.74,1.74,0,0,1-1.74,1.74" transform="translate(-155.663 -21.807)" fill="#0b1419"/>
      <path id="Path_1129" data-name="Path 1129" d="M381.035,56.779l-.478-.678a.063.063,0,0,0-.045-.024h-.4a.029.029,0,0,0-.029.029v.667a.03.03,0,0,1-.03.029h-.307a.03.03,0,0,1-.029-.029V54.751a.029.029,0,0,1,.029-.029h.9c.479,0,.773.252.773.66a.619.619,0,0,1-.467.625.019.019,0,0,0-.011.032l.527.74c.009.014,0,.024-.012.024h-.372a.062.062,0,0,1-.046-.024m-.923-1.724a.029.029,0,0,0-.029.029v.641a.029.029,0,0,0,.029.029h.505c.262,0,.429-.137.429-.351s-.161-.348-.432-.348Z" transform="translate(-156.579 -22.565)" fill="#0b1419"/>
      <path id="Path_1130" data-name="Path 1130" d="M288.206,41.983a.679.679,0,0,0,.682.675h8.674c7.725,0,13.33-5.253,13.33-12.49V30.1c0-7.2-5.606-12.427-13.329-12.427l-11.581,0c-.425,0-.681.006-.681,1.2a3.269,3.269,0,0,0,2.9,2.966Zm4.333-20.148h5.023c5.177,0,8.935,3.505,8.935,8.334v.062c0,4.868-3.674,8.268-8.935,8.268h-5.023Z" transform="translate(-117.647 -7.287)" fill="#1a1818"/>
      <path id="Path_1131" data-name="Path 1131" d="M151.408,21.834V41.979a.679.679,0,0,0,.682.676h2.966a.678.678,0,0,0,.681-.676V34.317h5.826c5.046,0,9.845-2.609,9.845-8.436v-.063c0-4.951-3.832-8.149-9.845-8.149H149.185c-.425,0-.682.005-.682,1.2a3.269,3.269,0,0,0,2.905,2.965m4.329,0h5.826c3.5,0,5.513,1.488,5.513,4.083v.063c0,2.5-2.266,4.179-5.513,4.179h-5.826Z" transform="translate(-61.236 -7.285)" fill="#1a1818"/>
      <path id="Path_1132" data-name="Path 1132" d="M260.325,17.667h-2.9a.68.68,0,0,0-.685.674v16.47L242.658,18.247a1.933,1.933,0,0,0-1.258-.579h-1.912a.7.7,0,0,0-.682.675l0,23.636a.682.682,0,0,0,.682.676h2.9a.679.679,0,0,0,.682-.676l0-16.637,14.242,16.75a1.575,1.575,0,0,0,1.067.564h1.933a.692.692,0,0,0,.7-.688V18.341a.688.688,0,0,0-.682-.674" transform="translate(-98.473 -7.285)" fill="#1a1818"/>
      <path id="Path_1133" data-name="Path 1133" d="M330.451,42.657h3.112a1.326,1.326,0,0,0,1.052-.662l2.107-4.428H349.8l2.107,4.428a1.327,1.327,0,0,0,1.054.662h3.11a.644.644,0,0,0,.571-.929c-.244-.507-11.209-23.4-11.209-23.4a1.3,1.3,0,0,0-1.056-.655h-2.227a1.293,1.293,0,0,0-1.057.655s-10.965,22.893-11.209,23.4a.642.642,0,0,0,.569.929m8.217-9.22,4.592-10.106,4.592,10.106Z" transform="translate(-136 -7.289)" fill="#1a1818"/>
      <path id="Path_1134" data-name="Path 1134" d="M186.848,42.657h3.111a1.328,1.328,0,0,0,1.053-.662l2.107-4.428h13.076l2.107,4.428a1.326,1.326,0,0,0,1.054.662h3.11a.643.643,0,0,0,.57-.929c-.243-.507-11.209-23.4-11.209-23.4a1.3,1.3,0,0,0-1.057-.655h-2.227a1.294,1.294,0,0,0-1.057.655s-10.965,22.893-11.209,23.4a.642.642,0,0,0,.57.929m8.216-9.22,4.592-10.106,4.594,10.106Z" transform="translate(-76.784 -7.289)" fill="#1a1818"/>
      <path id="Path_1135" data-name="Path 1135" d="M167.636,75.3h-7.08a.595.595,0,0,1,0-1.189h7.08a.595.595,0,1,1,0,1.189" transform="translate(-65.962 -30.56)" fill="#1a1818"/>
      <path id="Path_1136" data-name="Path 1136" d="M163.219,82.228h-9.128a.595.595,0,0,1,0-1.189h9.128a.595.595,0,0,1,0,1.189" transform="translate(-63.295 -33.417)" fill="#1a1818"/>
      <path id="Path_1137" data-name="Path 1137" d="M167.889,89.156h-6.516a.595.595,0,0,1,0-1.189h6.516a.595.595,0,0,1,0,1.189" transform="translate(-66.299 -36.274)" fill="#1a1818"/>
      <path id="Path_1138" data-name="Path 1138" d="M178.372,72.345h4.448c4.087,0,6.468,2.364,6.468,5.68v.032c0,3.315-2.413,5.778-6.533,5.778h-4.383Zm3.184,2.807v5.86h1.3c1.92,0,3.184-1.051,3.184-2.905v-.033c0-1.839-1.264-2.922-3.184-2.922Z" transform="translate(-73.553 -29.832)" fill="#1a1818"/>
      <path id="Path_1139" data-name="Path 1139" d="M203.951,72.345h9.242v2.692H207.1v1.756h5.516v2.512H207.1v1.822h6.172v2.708h-9.324Z" transform="translate(-84.101 -29.832)" fill="#1a1818"/>
      <path id="Path_1140" data-name="Path 1140" d="M227.493,72.345h3.184v8.7h5.565v2.791h-8.749Z" transform="translate(-93.808 -29.832)" fill="#1a1818"/>
      <rect id="Rectangle_100" data-name="Rectangle 100" width="3.184" height="11.491" transform="translate(146.352 42.513)" fill="#1a1818"/>
      <path id="Path_1141" data-name="Path 1141" d="M260.415,72.345h3.546l2.61,7.272,2.626-7.272h3.481l-4.662,11.572h-2.955Z" transform="translate(-107.384 -29.832)" fill="#1a1818"/>
      <path id="Path_1142" data-name="Path 1142" d="M287.363,72.345H296.6v2.692h-6.09v1.756h5.516v2.512h-5.516v1.822h6.172v2.708h-9.324Z" transform="translate(-118.497 -29.832)" fill="#1a1818"/>
      <path id="Path_1143" data-name="Path 1143" d="M310.484,72.345h5.433a5.086,5.086,0,0,1,3.743,1.231,3.587,3.587,0,0,1,1.018,2.676v.033a3.64,3.64,0,0,1-2.364,3.546l2.741,4.005H317.4l-2.315-3.48h-1.412v3.48h-3.185Zm5.3,5.516c1.067,0,1.707-.525,1.707-1.363v-.032c0-.92-.673-1.379-1.724-1.379h-2.1v2.774Z" transform="translate(-128.031 -29.832)" fill="#1a1818"/>
      <path id="Path_1144" data-name="Path 1144" d="M333.69,81.991l1.773-2.117a5.955,5.955,0,0,0,3.726,1.379c.87,0,1.329-.3,1.329-.788v-.033c0-.492-.377-.739-1.953-1.116-2.446-.558-4.333-1.248-4.333-3.6v-.033c0-2.134,1.691-3.677,4.448-3.677a7.232,7.232,0,0,1,4.728,1.527l-1.593,2.249a5.64,5.64,0,0,0-3.217-1.133c-.772,0-1.149.312-1.149.739v.032c0,.525.394.756,2,1.117,2.626.575,4.268,1.428,4.268,3.579v.032c0,2.348-1.855,3.743-4.646,3.743a8.056,8.056,0,0,1-5.384-1.9" transform="translate(-137.6 -29.694)" fill="#1a1818"/>
    </g>
  </g>
</svg>
