<?xml version="1.0" encoding="utf-8"?>
<!-- Generator: Adobe Illustrator 28.0.0, SVG Export Plug-In . SVG Version: 6.00 Build 0)  -->
<svg version="1.1" id="Layer_1" xmlns="http://www.w3.org/2000/svg" xmlns:xlink="http://www.w3.org/1999/xlink" x="0px" y="0px"
	 viewBox="0 0 354.5 148.3" style="enable-background:new 0 0 354.5 148.3;" xml:space="preserve">
<style type="text/css">
	.st0{fill:#FFFFFF;}
	.st1{fill:#9E0505;}
</style>
<g>
	<g>
		<path class="st0" d="M52.7,108.3h1.6l2.5-10.9H55l0.4-1.8h4.9c0.7,0,1.3,0.1,1.8,0.2c2.1,0.5,3.2,2,3.2,3.9c0,2.9-2.3,5.3-6.1,5.3
			c-0.8,0-1.6,0-2,0l-0.8,3.3h2l-0.4,1.8h-5.6L52.7,108.3z M63.3,99.8c0-1.1-0.6-2-1.9-2.3c-0.4-0.1-0.9-0.2-1.3-0.2h-1.2l-1.4,5.8
			c0.5,0,1.2,0,1.9,0C62,103.2,63.3,101.7,63.3,99.8z"/>
		<path class="st0" d="M69.9,100.6l-1.5,5.7c-0.1,0.3-0.1,0.6-0.1,0.9c0,0.8,0.5,1.3,1.3,1.3c1.3,0,2.3-1,2.8-2.9l1.3-5.1h1.9
			l-1.7,6.7c-0.1,0.4-0.2,0.7-0.2,1c0,0.4,0.2,0.7,0.5,0.7c0.4,0,0.8-0.3,1.3-1.5l0.9,0.3c-0.6,1.9-1.6,2.5-2.6,2.5
			c-1.1,0-1.8-0.8-1.8-2V108c-0.8,1.3-1.9,2.2-3.2,2.2c-1.3,0-2.5-1-2.5-2.5c0-0.5,0.1-1,0.2-1.6l1-3.9h-1.8l0.4-1.6H69.9z"/>
		<path class="st0" d="M79.9,102.2h-1.8l0.4-1.6h3.4l-0.6,2.7c1.2-1.9,2.3-2.8,3.3-2.8c0.8,0,1.4,0.5,1.4,1.3c0,0.7-0.6,1.3-1.3,1.3
			c-0.7,0-1.2-0.4-1.3-1c-0.7,0.3-2,1.6-2.5,3.7l-1.1,4.2h-1.9L79.9,102.2z"/>
		<path class="st0" d="M86.2,106c0-3,2.5-5.6,5.5-5.6c2.1,0,3.5,1.3,3.5,2.7c0,0.8-0.5,1.5-1.3,1.5c-0.6,0-1.1-0.5-1.1-1.2
			c0-0.3,0.2-0.6,0.4-0.8c-0.3-0.4-0.8-0.5-1.5-0.5c-1.7,0-3.5,1.5-3.5,3.9c0,1.6,1.1,2.7,2.7,2.7c1.1,0,2.2-0.4,3.2-1.2v1.8
			c-0.9,0.7-2.1,1-3.3,1C88.2,110.2,86.2,108.6,86.2,106z"/>
		<path class="st0" d="M99.6,95.6h-1.8l0.4-1.6h3.6l-2,8.5c0.7-1.1,1.8-2,3.1-2c1.4,0,2.6,1,2.6,2.7c0,0.5-0.1,1-0.2,1.5l-0.8,2.8
			c-0.1,0.3-0.1,0.6-0.1,0.7c0,0.4,0.2,0.7,0.6,0.7s0.8-0.3,1.2-1.5l0.9,0.3c-0.5,1.7-1.4,2.5-2.6,2.5c-1.3,0-2-0.8-2-1.9
			c0-0.3,0.1-0.7,0.2-1.1l0.8-2.9c0.1-0.4,0.1-0.7,0.1-1c0-0.8-0.6-1.4-1.5-1.4c-1.2,0-2.3,1-2.7,2.9l-1.2,5.1h-1.9L99.6,95.6z"/>
		<path class="st0" d="M108.4,106.4c0-3.2,2.2-6,5-6c1.4,0,2.5,1,2.8,2.2l0.6-2.1h1.8l-1.7,6.7c-0.1,0.4-0.2,0.7-0.2,1
			c0,0.4,0.2,0.7,0.6,0.7s0.8-0.3,1.2-1.5l0.9,0.3c-0.6,1.9-1.6,2.5-2.6,2.5c-1.1,0-1.8-0.8-1.8-1.9v-0.1c-0.8,1.1-2,2-3.4,2
			C109.7,110.2,108.4,108.7,108.4,106.4z M115.8,104.4c0-1.4-0.7-2.3-2.2-2.3c-1.8,0-3.2,2-3.2,4.1c0,1.4,0.7,2.4,2,2.4
			C114.3,108.6,115.8,106.5,115.8,104.4z"/>
		<path class="st0" d="M121.1,109c-0.4-0.4-0.6-0.8-0.6-1.3c0-0.7,0.5-1.2,1.1-1.2s1.1,0.5,1.1,1.1c0,0.2-0.1,0.5-0.2,0.6
			c0.1,0.1,0.2,0.2,0.4,0.2c0.4,0.2,1.1,0.4,1.8,0.4c1,0,1.8-0.4,1.8-1.2c0-0.8-0.9-1.2-2-1.6c-1.3-0.6-2.6-1.3-2.6-2.8
			s1.3-2.8,3.6-2.8c1.3,0,2.4,0.4,3,1.1c0.4,0.4,0.5,0.8,0.5,1.2c0,0.7-0.5,1.2-1.1,1.2s-1.1-0.5-1.1-1.1c0-0.2,0-0.4,0.2-0.6
			c-0.1,0-0.2-0.1-0.3-0.2c-0.3-0.1-0.8-0.2-1.3-0.2c-1,0-1.7,0.4-1.7,1.1s0.9,1.1,2,1.6c1.3,0.6,2.5,1.3,2.5,2.8
			c0,1.9-1.5,2.9-3.8,2.9C123.1,110.2,121.8,109.7,121.1,109z"/>
		<path class="st0" d="M132.2,105.9v0.3c0,1.4,1.1,2.4,2.9,2.4c1,0,1.9-0.2,3.1-0.9l-0.4,1.8c-1,0.5-1.8,0.7-3.1,0.7
			c-2.3,0-4.4-1.4-4.4-4c0-3.2,2.4-5.8,5.2-5.8c2.3,0,3.8,1.3,3.8,3.5c0,0.6-0.1,1.3-0.4,2H132.2z M132.4,104.5h4.9
			c0.1-0.3,0.1-0.5,0.1-0.8c0-1-0.7-1.7-2-1.7C134.1,102,132.9,103,132.4,104.5z"/>
		<path class="st0" d="M147.4,112c0.1-0.2,0.4-1.5,0.7-2.2c-1.6-0.5-2.8-1.5-2.8-2.7c0-0.7,0.5-1.4,1.2-1.4s1.1,0.5,1.1,1.1
			c0,0.4-0.2,0.6-0.4,0.8c0.2,0.3,0.8,0.6,1.4,0.7l1.1-3.5c-1.4-0.6-2.9-1.4-2.9-3.1c0-1.6,1.7-3.2,4.3-3.2c0.1,0,0.3,0,0.4,0
			L152,97l1.3,0.4l-0.4,1.4c1.4,0.4,2.4,1.4,2.4,2.4c0,0.8-0.5,1.3-1.2,1.3c-0.6,0-1.1-0.5-1.1-1.1c0-0.3,0.1-0.6,0.4-0.9
			c-0.2-0.2-0.5-0.4-1-0.5l-1.1,3.4c1.5,0.7,3,1.5,3,3.1c0,1.9-1.7,3.3-4.3,3.3c-0.2,0-0.4,0-0.6,0l-0.7,2.3L147.4,112z
			 M150.3,103.1l0.9-3c-1.5,0-2.3,0.6-2.3,1.5C148.9,102.3,149.5,102.7,150.3,103.1z M150.8,105.4l-1,3.2h0.1c1.4,0,2.5-0.5,2.5-1.6
			C152.4,106.3,151.7,105.8,150.8,105.4z"/>
		<path class="st0" d="M155.4,109.6c0-0.9,0.5-1.5,1.3-1.5c0.7,0,1.2,0.5,1.2,1.1c0,0.4-0.2,0.8-0.5,0.9c0.2,0.4,1.2,1,2.8,1
			c1.8,0,3-1.2,3-2.5c0-1.4-1.3-2.5-3.3-2.5h-0.5l0.4-1.6h0.5c2.4,0,4.1-1,4.1-2.5c0-1.2-1-1.9-2.5-1.9c-1.1,0-1.7,0.2-2,0.5
			c0.2,0.2,0.4,0.5,0.4,0.8c0,0.7-0.5,1.1-1.2,1.1c-0.6,0-1.2-0.4-1.2-1.3c0-1.5,1.8-2.8,4.2-2.8c2.7,0,4.4,1.4,4.4,3.4
			c0,1.7-1.3,3.1-3.8,3.5c1.8,0.7,2.6,1.9,2.6,3.3c0,2.3-2.1,4.1-5,4.1C157.5,112.8,155.4,111.3,155.4,109.6z"/>
		<path class="st0" d="M167.8,105.1c0-3.3,2.5-6.6,6-6.6c3.1,0,4.9,2.3,4.9,5.1c0,3.3-2.5,6.6-6,6.6
			C169.6,110.2,167.8,107.9,167.8,105.1z M176.7,103.7c0-2-1.2-3.5-2.9-3.5c-2.3,0-4,2.3-4,4.9c0,2,1.2,3.5,2.9,3.5
			C175.1,108.6,176.7,106.2,176.7,103.7z"/>
		<path class="st0" d="M185.4,108.3c0-0.3,0.1-0.7,0.2-1l1.3-5.1H185l0.4-1.6h3.7l-1.8,6.7c-0.1,0.4-0.2,0.7-0.2,1
			c0,0.4,0.2,0.7,0.6,0.7c0.4,0,0.8-0.3,1.3-1.5l0.9,0.3c-0.6,1.9-1.5,2.5-2.7,2.5C186.1,110.2,185.4,109.4,185.4,108.3z
			 M187.2,97.7c0-0.7,0.6-1.3,1.3-1.3s1.3,0.6,1.3,1.3c0,0.7-0.6,1.3-1.3,1.3S187.2,98.4,187.2,97.7z"/>
		<path class="st0" d="M197.8,108.3c0-0.3,0.1-0.7,0.2-1.1l0.8-2.9c0.1-0.4,0.2-0.7,0.2-1c0-0.8-0.6-1.4-1.4-1.4
			c-1.2,0-2.3,1-2.7,2.9l-1.3,5.1h-1.9l2-7.8h-1.8l0.4-1.6h3.4l-0.5,2.2c0.7-1.3,2-2.4,3.3-2.4c1.4,0,2.6,1,2.6,2.7
			c0,0.5-0.1,1-0.2,1.5l-0.8,2.8c-0.1,0.3-0.1,0.6-0.1,0.8c0,0.4,0.2,0.7,0.6,0.7c0.4,0,0.8-0.3,1.2-1.5l0.9,0.3
			c-0.5,1.7-1.4,2.5-2.6,2.5C198.6,110.2,197.8,109.4,197.8,108.3z"/>
		<path class="st0" d="M208.2,113.3c-0.4-0.4-0.5-0.8-0.5-1.2c0-0.8,0.5-1.3,1.2-1.3s1.2,0.5,1.2,1.2c0,0.2,0,0.4-0.1,0.6
			c0.3,0.2,0.9,0.4,1.6,0.4c0.9,0,1.5-0.2,2.1-0.8c0.5-0.5,0.8-1.3,1.1-2.3l0.4-1.8c-0.8,1.1-2,1.9-3.3,1.9c-2.1,0-3.4-1.5-3.4-3.8
			c0-3.1,2.1-5.7,5-5.7c1.6,0,2.6,1.1,2.9,2.2l0.6-2h1.8l-2.3,9.8c-0.3,1.3-0.7,2.2-1.4,2.9c-0.8,0.8-1.9,1.2-3.5,1.2
			C210.2,114.4,208.8,113.9,208.2,113.3z M215.9,104.3c0-1.4-0.9-2.3-2.3-2.3c-1.8,0-3.3,1.8-3.3,3.9c0,1.4,0.9,2.3,2.2,2.3
			C214.5,108.3,215.9,106.4,215.9,104.3z"/>
		<path class="st0" d="M220.5,108.3c0-0.3,0.1-0.7,0.2-1l1.3-5.1h-1.8l0.4-1.6h3.7l-1.8,6.7c-0.1,0.4-0.2,0.7-0.2,1
			c0,0.4,0.2,0.7,0.6,0.7c0.4,0,0.8-0.3,1.3-1.5l0.9,0.3c-0.6,1.9-1.5,2.5-2.7,2.5C221.3,110.2,220.5,109.4,220.5,108.3z
			 M222.4,97.7c0-0.7,0.6-1.3,1.3-1.3s1.3,0.6,1.3,1.3c0,0.7-0.6,1.3-1.3,1.3S222.4,98.4,222.4,97.7z"/>
		<path class="st0" d="M228.6,102.2H227l0.4-1.6h1.6l0.6-2.6c0.3-1.4,0.8-2.4,1.5-3.1s1.7-1.1,2.7-1.1c1.3,0,1.9,0.7,1.9,1.4
			c0,0.7-0.6,1.2-1.2,1.2s-1.1-0.4-1.2-1c-0.3,0.1-0.6,0.2-0.8,0.4c-0.4,0.4-0.8,1.2-1,2.2l-0.5,2.4h2.5l-0.4,1.6h-2.4l-1.8,7.8H227
			L228.6,102.2z"/>
		<path class="st0" d="M237.7,102.2l-1.2,4.9c-0.1,0.3-0.1,0.6-0.1,0.8c0,0.5,0.3,0.8,0.7,0.8c0.5,0,1-0.2,1.9-0.8l0.7,0.9
			c-1.2,1.1-2.3,1.4-3.2,1.4c-1.2,0-2.1-0.7-2.1-2c0-0.3,0.1-0.7,0.2-1.1l1.2-4.9h-1.7l0.4-1.6h1.7l0.5-2.2l2.1-0.7l-0.7,2.9h2.9
			l-0.4,1.6L237.7,102.2L237.7,102.2z"/>
		<path class="st0" d="M246.1,106c0-3,2.5-5.6,5.5-5.6c2.1,0,3.5,1.3,3.5,2.7c0,0.8-0.5,1.5-1.3,1.5c-0.6,0-1.1-0.5-1.1-1.2
			c0-0.3,0.2-0.6,0.4-0.8c-0.3-0.4-0.8-0.5-1.5-0.5c-1.7,0-3.5,1.5-3.5,3.9c0,1.6,1.1,2.7,2.7,2.7c1.1,0,2.2-0.4,3.2-1.2v1.8
			c-0.9,0.7-2.1,1-3.3,1C248.1,110.2,246.1,108.6,246.1,106z"/>
		<path class="st0" d="M256.5,106.4c0-3.2,2.2-6,5-6c1.4,0,2.5,1,2.8,2.2l0.6-2.1h1.8l-1.7,6.7c-0.1,0.4-0.2,0.7-0.2,1
			c0,0.4,0.2,0.7,0.6,0.7s0.8-0.3,1.2-1.5l0.9,0.3c-0.6,1.9-1.6,2.5-2.6,2.5c-1.1,0-1.8-0.8-1.8-1.9v-0.1c-0.8,1.1-2,2-3.4,2
			C257.9,110.2,256.5,108.7,256.5,106.4z M263.9,104.4c0-1.4-0.7-2.3-2.2-2.3c-1.8,0-3.2,2-3.2,4.1c0,1.4,0.7,2.4,2,2.4
			C262.5,108.6,263.9,106.5,263.9,104.4z"/>
		<path class="st0" d="M271,102.2h-1.8l0.4-1.6h3.4l-0.6,2.7c1.2-1.9,2.3-2.8,3.3-2.8c0.8,0,1.4,0.5,1.4,1.3c0,0.7-0.6,1.3-1.3,1.3
			c-0.7,0-1.2-0.4-1.3-1c-0.7,0.3-2,1.6-2.5,3.7l-1,4.2h-1.9L271,102.2z"/>
		<path class="st0" d="M282.3,100.4c1.4,0,2.5,1,2.9,2.2l1.6-7H285l0.4-1.6h3.6l-3.1,13.3c-0.1,0.4-0.2,0.7-0.2,1
			c0,0.4,0.2,0.7,0.5,0.7c0.4,0,0.8-0.3,1.3-1.5l0.9,0.3c-0.6,1.9-1.6,2.5-2.6,2.5c-1.1,0-1.8-0.8-1.8-1.9v-0.1
			c-0.8,1.1-1.9,2-3.4,2c-1.9,0-3.3-1.5-3.3-3.8C277.4,103.2,279.6,100.4,282.3,100.4z M284.8,104.4c0-1.4-0.8-2.4-2.2-2.4
			c-1.8,0-3.2,2-3.2,4.1c0,1.4,0.7,2.4,2,2.4C283.3,108.6,284.8,106.5,284.8,104.4z"/>
		<path class="st0" d="M290.1,109c-0.4-0.4-0.6-0.8-0.6-1.3c0-0.7,0.5-1.2,1.1-1.2s1.1,0.5,1.1,1.1c0,0.2-0.1,0.5-0.2,0.6
			c0.1,0.1,0.2,0.2,0.4,0.2c0.4,0.2,1.1,0.4,1.8,0.4c1,0,1.8-0.4,1.8-1.2c0-0.8-0.9-1.2-2-1.6c-1.3-0.6-2.6-1.3-2.6-2.8
			s1.3-2.8,3.6-2.8c1.3,0,2.4,0.4,3,1.1c0.4,0.4,0.5,0.8,0.5,1.2c0,0.7-0.5,1.2-1.1,1.2s-1.1-0.5-1.1-1.1c0-0.2,0-0.4,0.2-0.6
			c-0.1,0-0.2-0.1-0.3-0.2c-0.3-0.1-0.8-0.2-1.3-0.2c-1,0-1.7,0.4-1.7,1.1s0.9,1.1,2,1.6c1.3,0.6,2.5,1.3,2.5,2.8
			c0,1.9-1.5,2.9-3.8,2.9C292.1,110.2,290.8,109.7,290.1,109z"/>
		<path class="st0" d="M297.2,112.6c2-1.1,2.8-2.1,2.8-2.6c-0.7-0.2-1-0.9-1-1.3c0-0.9,0.7-1.5,1.5-1.5c0.9,0,1.6,0.7,1.6,1.7
			c0,1.6-1.7,3.5-4.5,4.5L297.2,112.6z"/>
	</g>
	<g>
		<path class="st0" d="M72.9,128.5v0.3c0,1.4,1.1,2.4,2.9,2.4c1,0,1.9-0.2,3.1-0.9l-0.4,1.8c-1,0.5-1.8,0.7-3.1,0.7
			c-2.3,0-4.4-1.4-4.4-4c0-3.2,2.4-5.8,5.2-5.8c2.3,0,3.8,1.3,3.8,3.5c0,0.6-0.1,1.3-0.4,2H72.9z M73.2,127.1h4.9
			c0.1-0.3,0.1-0.5,0.1-0.8c0-1-0.7-1.7-2-1.7S73.7,125.6,73.2,127.1z"/>
		<path class="st0" d="M81.7,129c0-3.2,2.2-6,5-6c1.4,0,2.5,1,2.8,2.2l0.6-2.1h1.8l-1.7,6.7c-0.1,0.4-0.2,0.7-0.2,1
			c0,0.4,0.2,0.7,0.6,0.7s0.8-0.3,1.2-1.5l0.9,0.3c-0.6,1.9-1.6,2.5-2.6,2.5c-1.1,0-1.8-0.8-1.8-1.9v-0.1c-0.8,1.1-2,2-3.4,2
			C83,132.8,81.7,131.3,81.7,129z M89,127c0-1.4-0.7-2.3-2.2-2.3c-1.8,0-3.2,2-3.2,4.1c0,1.4,0.7,2.4,2,2.4
			C87.6,131.2,89,129.1,89,127z"/>
		<path class="st0" d="M96.2,124.8h-1.8l0.4-1.6h3.4l-0.6,2.7c1.2-1.9,2.3-2.8,3.3-2.8c0.8,0,1.4,0.5,1.4,1.3c0,0.7-0.6,1.3-1.3,1.3
			c-0.7,0-1.2-0.4-1.3-1c-0.7,0.3-2,1.6-2.5,3.7l-1.1,4.2h-1.9L96.2,124.8z"/>
		<path class="st0" d="M109.2,130.9c0-0.3,0.1-0.7,0.2-1.1l0.8-2.9c0.1-0.4,0.2-0.7,0.2-1c0-0.8-0.6-1.4-1.4-1.4
			c-1.2,0-2.3,1-2.7,2.9l-1.3,5.1h-2l2-7.8h-1.8l0.4-1.6h3.4l-0.5,2.2c0.7-1.3,2-2.4,3.3-2.4c1.5,0,2.6,1,2.6,2.7
			c0,0.5-0.1,1-0.2,1.5l-0.8,2.8c-0.1,0.3-0.1,0.6-0.1,0.8c0,0.4,0.2,0.7,0.6,0.7s0.8-0.3,1.2-1.5l0.9,0.3c-0.5,1.7-1.4,2.5-2.6,2.5
			C110,132.8,109.2,132,109.2,130.9z"/>
		<path class="st0" d="M119.7,129c0-3.2,2.2-6,5-6c1.4,0,2.5,1,2.8,2.2l0.6-2.1h1.8l-1.7,6.7c-0.1,0.4-0.2,0.7-0.2,1
			c0,0.4,0.2,0.7,0.6,0.7c0.4,0,0.8-0.3,1.2-1.5l0.9,0.3c-0.6,1.9-1.6,2.5-2.6,2.5c-1.1,0-1.8-0.8-1.8-1.9v-0.1c-0.8,1.1-2,2-3.4,2
			C121.1,132.8,119.7,131.3,119.7,129z M127.1,127c0-1.4-0.7-2.3-2.2-2.3c-1.8,0-3.2,2-3.2,4.1c0,1.4,0.7,2.4,2,2.4
			C125.7,131.2,127.1,129.1,127.1,127z"/>
		<path class="st0" d="M138.7,134.6c0.1-0.2,0.4-1.5,0.7-2.2c-1.6-0.5-2.8-1.5-2.8-2.7c0-0.7,0.5-1.4,1.2-1.4s1.1,0.5,1.1,1.1
			c0,0.4-0.2,0.6-0.4,0.8c0.2,0.3,0.8,0.6,1.4,0.7l1.1-3.5c-1.4-0.6-2.9-1.4-2.9-3.1c0-1.6,1.7-3.2,4.3-3.2c0.1,0,0.3,0,0.4,0
			l0.5-1.5l1.3,0.4l-0.4,1.4c1.4,0.4,2.4,1.4,2.4,2.4c0,0.8-0.5,1.3-1.2,1.3c-0.6,0-1.1-0.5-1.1-1.1c0-0.3,0.1-0.6,0.4-0.9
			c-0.2-0.2-0.5-0.4-1-0.5l-1.1,3.4c1.5,0.7,3,1.5,3,3.1c0,1.9-1.7,3.3-4.3,3.3c-0.2,0-0.4,0-0.6,0L140,135L138.7,134.6z
			 M141.6,125.7l0.9-3c-1.5,0-2.3,0.6-2.3,1.5C140.2,124.9,140.8,125.3,141.6,125.7z M142.1,128l-1,3.2h0.1c1.4,0,2.5-0.5,2.5-1.6
			C143.7,128.9,143,128.4,142.1,128z"/>
		<path class="st0" d="M146.9,132.7c0-0.8,0.6-1.4,1.3-1.4s1.2,0.5,1.2,1.2c0,0.2-0.1,0.5-0.2,0.6c0.3,0.3,1,0.5,2,0.5
			c2.2,0,3.6-1.5,3.6-3.2c0-1.4-1.1-2.4-2.8-2.4c-0.9,0-1.6,0.2-2.3,0.5l-1.1-0.7l2.2-6.7h7.1l-0.4,1.8h-5.7l-1.2,3.8
			c0.6-0.3,1.2-0.4,2-0.4c2.3,0,4.1,1.4,4.1,3.9c0,2.6-2.3,5-5.6,5C148.7,135.4,146.9,134.1,146.9,132.7z"/>
		<path class="st0" d="M166.4,118.2h-1.8l0.4-1.6h3.6l-2,8.4c0.7-1.1,1.9-2,3.2-2c2.2,0,3.5,1.5,3.5,3.8c0,3.3-2.3,6-5,6
			c-1.4,0-2.6-0.9-2.9-2.2l-0.6,2H163L166.4,118.2z M171.4,127.1c0-1.4-0.8-2.4-2.1-2.4c-1.9,0-3.4,2.1-3.4,4.2
			c0,1.4,0.8,2.3,2.3,2.3C169.9,131.1,171.4,129.2,171.4,127.1z"/>
		<path class="st0" d="M175.1,128.6c0-2.9,2.3-5.6,5.4-5.6c2.7,0,4.3,2,4.3,4.2c0,2.9-2.3,5.6-5.4,5.6
			C176.6,132.8,175.1,130.9,175.1,128.6z M182.8,127.2c0-1.6-1.1-2.6-2.4-2.6c-1.8,0-3.3,1.8-3.3,4c0,1.6,1.1,2.6,2.4,2.6
			C181.3,131.2,182.8,129.4,182.8,127.2z"/>
		<path class="st0" d="M192.7,130.9c0-0.3,0.1-0.7,0.2-1.1l0.8-2.9c0.1-0.4,0.2-0.7,0.2-1c0-0.8-0.6-1.4-1.4-1.4
			c-1.2,0-2.3,1-2.7,2.9l-1.3,5.1h-1.9l2-7.8h-1.8l0.4-1.6h3.4l-0.5,2.2c0.7-1.3,2-2.4,3.3-2.4c1.4,0,2.6,1,2.6,2.7
			c0,0.5-0.1,1-0.2,1.5l-0.8,2.8c-0.1,0.3-0.1,0.6-0.1,0.8c0,0.4,0.2,0.7,0.6,0.7c0.4,0,0.8-0.3,1.2-1.5l0.9,0.3
			c-0.5,1.7-1.4,2.5-2.6,2.5C193.4,132.8,192.7,132,192.7,130.9z"/>
		<path class="st0" d="M202.9,123.2l-1.4,5.7c-0.1,0.3-0.1,0.6-0.1,0.9c0,0.8,0.5,1.3,1.3,1.3c1.3,0,2.3-1,2.8-2.9l1.3-5.1h1.9
			l-1.7,6.7c-0.1,0.4-0.2,0.7-0.2,1c0,0.4,0.2,0.7,0.5,0.7c0.4,0,0.8-0.3,1.3-1.5l0.9,0.3c-0.6,1.9-1.6,2.5-2.6,2.5
			c-1.1,0-1.8-0.8-1.8-2v-0.2c-0.8,1.3-1.9,2.2-3.2,2.2s-2.5-1-2.5-2.5c0-0.5,0.1-1,0.2-1.6l1-3.9h-1.8l0.4-1.6L202.9,123.2
			L202.9,123.2z"/>
		<path class="st0" d="M211,131.6c-0.4-0.4-0.6-0.8-0.6-1.3c0-0.7,0.5-1.2,1.1-1.2s1.1,0.5,1.1,1.1c0,0.2-0.1,0.5-0.2,0.6
			c0.1,0.1,0.2,0.2,0.4,0.2c0.4,0.2,1.1,0.4,1.8,0.4c1,0,1.8-0.4,1.8-1.2s-0.9-1.2-2-1.6c-1.3-0.6-2.6-1.3-2.6-2.8s1.3-2.8,3.6-2.8
			c1.3,0,2.4,0.4,3,1.1c0.4,0.4,0.5,0.8,0.5,1.2c0,0.7-0.5,1.2-1.1,1.2s-1.1-0.5-1.1-1.1c0-0.2,0-0.4,0.2-0.6
			c-0.1,0-0.2-0.1-0.3-0.2c-0.3-0.1-0.8-0.2-1.3-0.2c-1,0-1.7,0.4-1.7,1.1s0.9,1.1,2,1.6c1.3,0.6,2.5,1.3,2.5,2.8
			c0,1.9-1.5,2.9-3.8,2.9C213,132.8,211.7,132.3,211,131.6z"/>
		<path class="st0" d="M224.9,128.6c0-3,2.5-5.6,5.5-5.6c2.1,0,3.5,1.3,3.5,2.7c0,0.8-0.5,1.5-1.3,1.5c-0.6,0-1.1-0.5-1.1-1.2
			c0-0.3,0.2-0.6,0.4-0.8c-0.3-0.4-0.8-0.5-1.5-0.5c-1.7,0-3.5,1.5-3.5,3.9c0,1.6,1.1,2.7,2.7,2.7c1.1,0,2.2-0.4,3.2-1.2v1.8
			c-0.9,0.7-2.1,1-3.3,1C226.8,132.8,224.9,131.2,224.9,128.6z"/>
		<path class="st0" d="M235.3,129c0-3.2,2.2-6,5-6c1.4,0,2.5,1,2.8,2.2l0.6-2.1h1.8l-1.7,6.7c-0.1,0.4-0.2,0.7-0.2,1
			c0,0.4,0.2,0.7,0.6,0.7c0.4,0,0.8-0.3,1.2-1.5l0.9,0.3c-0.6,1.9-1.6,2.5-2.6,2.5c-1.1,0-1.8-0.8-1.8-1.9v-0.1c-0.8,1.1-2,2-3.4,2
			C236.7,132.8,235.3,131.3,235.3,129z M242.7,127c0-1.4-0.7-2.3-2.2-2.3c-1.8,0-3.2,2-3.2,4.1c0,1.4,0.7,2.4,2,2.4
			C241.3,131.2,242.7,129.1,242.7,127z"/>
		<path class="st0" d="M249.8,124.8H248l0.4-1.6h3.4l-0.6,2.7c1.2-1.9,2.3-2.8,3.3-2.8c0.8,0,1.4,0.5,1.4,1.3c0,0.7-0.6,1.3-1.3,1.3
			s-1.2-0.4-1.3-1c-0.7,0.3-2,1.6-2.5,3.7l-1.1,4.2h-1.9L249.8,124.8z"/>
		<path class="st0" d="M261.1,123c1.4,0,2.5,1,2.9,2.2l1.6-7h-1.8l0.4-1.6h3.6l-3.1,13.3c-0.1,0.4-0.2,0.7-0.2,1
			c0,0.4,0.2,0.7,0.5,0.7c0.4,0,0.8-0.3,1.3-1.5l0.9,0.3c-0.6,1.9-1.6,2.5-2.6,2.5c-1.1,0-1.8-0.8-1.8-1.9v-0.1
			c-0.8,1.1-1.9,2-3.4,2c-1.9,0-3.3-1.5-3.3-3.8C256.2,125.8,258.4,123,261.1,123z M263.6,127c0-1.4-0.8-2.4-2.2-2.4
			c-1.8,0-3.2,2-3.2,4.1c0,1.4,0.7,2.4,2,2.4C262.1,131.2,263.6,129.1,263.6,127z"/>
		<path class="st0" d="M268.7,131.4c0-0.8,0.6-1.4,1.4-1.4s1.4,0.7,1.4,1.4c0,0.7-0.6,1.4-1.4,1.4
			C269.3,132.8,268.7,132.2,268.7,131.4z M271.7,118.2h2.4l-3,10.4h-0.9L271.7,118.2z"/>
		<path class="st0" d="M279.7,124l-0.4-2.3l-1.3,1.9c-0.3,0.4-0.7,0.6-1,0.6c-0.6,0-0.9-0.4-0.9-0.9c0-0.4,0.3-0.7,0.7-1l2.1-1.1
			l-2.2-0.7c-0.5-0.2-0.9-0.5-0.9-1s0.4-0.9,0.9-0.9c0.3,0,0.6,0.2,0.9,0.4l1.6,1.6v-2.4c0-0.7,0.3-1.2,0.9-1.2
			c0.7,0,1.3,0.6,0.7,1.6l-1.1,2.1l2.2-0.7c0.2-0.1,0.4-0.1,0.5-0.1c0.5,0,0.9,0.4,0.9,0.9c0,0.7-0.5,1-1.4,0.9l-2.3-0.4l1.4,1.9
			c0.2,0.3,0.3,0.6,0.3,0.9c0,0.4-0.5,0.8-0.9,0.8C280.2,125.1,279.8,124.7,279.7,124z"/>
	</g>
</g>
<g id="Group_28" transform="translate(-104 -10)">
	<g id="Group_152" transform="translate(421 77)">
		<g id="Group_131" transform="translate(1.579 1.579)">
			<g id="Group_130">
				<g id="Group_137">
					<path id="Path_723" class="st1" d="M-264.9-25.7c0-6.6,5.3-11.9,11.9-11.9c0.1,0,0.2,0,0.3,0c3.7-0.1,7.2,1.5,9.6,4.3l-1.7,1.3
						c-1.9-2.4-4.8-3.7-7.9-3.6c-5.5-0.1-10,4.1-10.1,9.6s4.1,10,9.6,10.1c0.2,0,0.4,0,0.5,0c3.3,0,6.4-1.6,8.3-4.3l0.1-0.1v-5.5
						h2.2v6.2c-2.4,3.5-6.3,5.6-10.5,5.7c-6.5,0.2-12-4.9-12.2-11.5C-264.9-25.5-264.9-25.6-264.9-25.7 M-262.1-25.7
						c0-5,4-9.1,9.1-9.2c0.1,0,0.2,0,0.3,0c2.8,0,5.5,1.2,7.3,3.4l-1.6,1.2c-1.4-1.7-3.5-2.7-5.7-2.7c-3.9-0.1-7.2,3-7.3,6.9
						c0,0.1,0,0.2,0,0.3c0,4,3.3,7.2,7.3,7.2c2.1,0,4.1-1,5.5-2.6v-4.6h2.1v5.3c-1.8,2.4-4.6,3.9-7.7,3.9c-5,0.2-9.2-3.8-9.4-8.8
						C-262.1-25.5-262.1-25.6-262.1-25.7"/>
					<path id="Path_724" class="st1" d="M-237.1-37.2h2.1v22.8h-2.1V-37.2z M-234.2-37.2h2.2v22.8h-2.2V-37.2z"/>
					<path id="Path_725" class="st1" d="M-229.3-37.2h2.4l10.3,19.8l10.3-19.8h2.3l-12.6,23.8L-229.3-37.2z M-226.1-37.2h2.4
						l7.1,14.2l7.2-14.2h2.3l-9.5,18.2L-226.1-37.2z"/>
					<path id="Path_726" class="st1" d="M-201.2-37.2h18v1.9h-15.9v19h15.9v1.9h-18V-37.2z M-198.4-34.5h15.2v1.9h-13v4h9.1v1.8
						h-11.3V-34.5z M-198.4-26.1h11.3v1.8h-9.1v5.3h13v2h-15.2V-26.1z"/>
					<path id="Path_727" class="st1" d="M-169.1-37.2h10.6c5.3,0,8.6,3,8.6,7.6s-3,7.6-8.3,7.6h-5.9v7.6h-2.2v-9.4h7.9
						c3.8,0,6.2-2.2,6.2-5.7s-2.5-5.7-6.3-5.7h-8.5v20.9h-2.1V-37.2z M-166.3-34.6h7.8c3.5,0,5.6,1.9,5.6,5c0,3.2-2,5-5.5,5h-7.9
						L-166.3-34.6z M-158.5-26.4c1.7,0.2,3.2-1,3.4-2.6c0-0.2,0-0.4,0-0.5c0.1-1.7-1.2-3.1-2.9-3.2c-0.2,0-0.3,0-0.5,0h-5.6v6.3
						C-164.1-26.4-158.5-26.4-158.5-26.4z"/>
					<path id="Path_728" class="st1" d="M-138.5-38.1l13.1,23.8h-2.3l-10.8-19.8l-10.9,19.8h-2.3L-138.5-38.1z M-145.2-20.5h13.3
						l3.4,6.2h-2.3l-2.4-4.5h-10.6l-2.4,4.5h-2.4L-145.2-20.5z M-138.5-32.7l6.2,11.4h-12.5L-138.5-32.7z M-135.4-23l-3.1-5.8
						l-3.1,5.8H-135.4z"/>
					<path id="Path_729" class="st1" d="M-122.7-37.2h2.1v22.8h-2.1V-37.2z M-119.8-37.2h2.4l11.3,15.3v-15.3h2.1v21.6L-119.8-37.2z
						 M-119.8-35.9l15.8,21.5h-2.3l-11.3-15.3v15.3h-2.2V-35.9z M-103.3-37.2h2.1v22.8h-2.1V-37.2z"/>
					<path id="Path_730" class="st1" d="M-94.9-37.2h7.8c8.2,0,13.3,4.8,13.3,11.5S-79-14.4-87.2-14.4H-95L-94.9-37.2z M-87.2-16.3
						c6.9,0,11.2-3.6,11.2-9.4c0-5.9-4.3-9.6-11.2-9.6h-5.6v19C-92.8-16.3-87.2-16.3-87.2-16.3z M-92.1-34.6h4.9
						c6.5,0,10.5,3.4,10.5,8.9c0,5.4-3.9,8.7-10.5,8.7h-4.9V-34.6z M-87.2-18.9c5.8,0,8.3-2.6,8.3-6.8s-2.6-6.9-8.3-7H-90v13.8
						L-87.2-18.9z"/>
					<path id="Path_731" class="st1" d="M-60.3-38.1l13.1,23.8h-2.3l-10.8-19.8l-10.9,19.8h-2.3L-60.3-38.1z M-67-20.5h13.3l3.4,6.2
						h-2.3l-2.4-4.5h-10.6l-2.4,4.5h-2.4L-67-20.5z M-60.3-32.7l6.2,11.4h-12.5L-60.3-32.7z M-57.2-23l-3.1-5.8l-3.1,5.8H-57.2z"/>
					<path id="Path_732" class="st1" d="M-22.7-17l-0.7,0.6c-1.5,1.5-3.6,2.3-5.7,2.4c-5,0-7.8-3.2-7.8-7.1c0-2.1,1-4,2.7-5.1
						l1.1-0.9c-1.6-1.6-2.4-2.8-2.4-4.6c0-3.2,2.6-5.8,6.4-5.8c4,0,6.6,2.5,6.6,5.8c0,2.3-1,3.6-3.3,5.4l2.9,2.9l2.4-2.9l1.3,1.2
						l-3.7,4.3l-6.1-5.9l1.6-0.9c2.1-1.2,2.9-2.4,2.9-4.2c0-2.4-1.9-4.1-4.6-4.1c-2.3-0.2-4.3,1.5-4.5,3.8c0,0.1,0,0.2,0,0.2
						c0,1.4,0.9,2.5,2.2,3.8l1.3,1.2l-1.7,1c-1.8,0.9-3,2.6-3.1,4.6c0,3.2,2.4,5.3,5.8,5.3c2.2-0.1,4.1-1.2,5.4-2.9l0.9-1l4.5,4.3
						l-1.3,1.5L-22.7-17z M-34.2-21.1c0.1-1.7,1.2-3.3,2.7-4l1.9-1.1l6.2,6l-0.9,1c-1.1,1.6-2.9,2.6-4.8,2.7
						C-32.2-16.5-34.2-18.4-34.2-21.1 M-30.9-28.5c-1.6-1.5-2-2.3-2-3.3c0-1.9,1.6-3.4,3.6-3.4c0.1,0,0.2,0,0.2,0
						c2.3,0,3.9,1.4,3.9,3.4c0,1.6-0.7,2.5-2.6,3.6l-1.7,1L-30.9-28.5z M-26.2-19.6l0.6-0.6l-4.2-4l-0.7,0.5c-1,0.5-1.6,1.4-1.7,2.5
						c0,1.6,1.3,2.9,2.9,2.8c0.1,0,0.2,0,0.3,0C-28-18.4-27-18.8-26.2-19.6 M-27.1-31.8c0-1.1-0.8-1.7-2-1.7c-1-0.1-1.8,0.5-2,1.5
						c0,0.1,0,0.2,0,0.2c0,0.9,0.7,1.6,1.8,2.6C-28-30.1-27.1-30.7-27.1-31.8 M-22.4-20.3l3.7-4.3l1.3,1.2l-2.5,2.9l3.2,3.1L-18-16
						L-22.4-20.3z"/>
					<path id="Path_733" class="st1" d="M-316.3,4.9c0-6.6,5.3-11.9,11.9-11.9c0.1,0,0.2,0,0.3,0c3.7-0.1,7.2,1.5,9.6,4.3l-1.7,1.3
						c-1.9-2.4-4.8-3.7-7.9-3.6c-5.5-0.1-10,4.1-10.1,9.6s4.1,10,9.6,10.1c0.2,0,0.4,0,0.5,0c3.3,0,6.4-1.6,8.3-4.3l0.1-0.1V4.8h2.2
						V11c-2.4,3.5-6.3,5.6-10.5,5.7c-6.5,0.2-12-4.9-12.2-11.5C-316.3,5.1-316.3,5-316.3,4.9 M-313.5,4.9c0-5,4-9.1,9.1-9.2
						c0.1,0,0.2,0,0.3,0c2.8,0,5.5,1.2,7.3,3.4l-1.6,1.2c-1.4-1.7-3.5-2.7-5.7-2.7c-4,0-7.2,3.2-7.2,7.2s3.2,7.2,7.2,7.2l0,0
						c2.1,0,4.2-0.9,5.5-2.6V4.8h2.1v5.3c-1.8,2.4-4.6,3.9-7.7,3.9c-5,0.2-9.2-3.8-9.4-8.8C-313.5,5.1-313.5,5-313.5,4.9"/>
					<path id="Path_734" class="st1" d="M-288.4-6.6h18v1.9h-15.9v19h15.9v1.9h-18V-6.6z M-285.6-3.9h15.2V-2h-13v4h9.1v1.8h-11.3
						L-285.6-3.9L-285.6-3.9z M-285.6,4.5h11.3v1.8h-9.1v5.3h13v2h-15.2L-285.6,4.5L-285.6,4.5z"/>
					<path id="Path_735" class="st1" d="M-267.6-6.6h19.5v1.9h-19.4L-267.6-6.6z M-260.3-2h-7.2v-1.9h9.4v20.2h-2.1L-260.3-2z
						 M-257.5-3.9h9.4V-2h-7.2v18.3h-2.1L-257.5-3.9z"/>
					<path id="Path_736" class="st1" d="M-235.4-6.6h2.1v22.8h-2.1V-6.6z M-230.5,2.5v13.8h-2.1V-5.1l10.2,18.3l10.1-18.3v21.3h-2.1
						V2.5l-7.9,14.4L-230.5,2.5z M-232.6-6.6h2.1l8,14.6l8.1-14.6h2l-10.1,18.3L-232.6-6.6z M-211.6-6.6h2.1v22.8h-2.1V-6.6z"/>
					<path id="Path_737" class="st1" d="M-204.6,4.8c-0.2-6.8,5.1-12.4,11.9-12.6C-186-8-180.3-2.7-180.1,4
						c0.2,6.8-5.1,12.4-11.9,12.6c-0.1,0-0.3,0-0.4,0c-6.5,0.2-12-4.9-12.2-11.5C-204.6,5.1-204.6,5-204.6,4.8 M-182.2,4.8
						c0.1-5.6-4.3-10.2-9.9-10.3c-5.6-0.1-10.2,4.3-10.3,9.9s4.3,10.2,9.9,10.3c0.1,0,0.1,0,0.2,0c5.4,0.2,9.9-4.1,10.1-9.5
						C-182.2,5.1-182.2,5-182.2,4.8 M-201.8,4.8c-0.1-5.2,4-9.5,9.2-9.6s9.5,4,9.6,9.2s-4,9.5-9.2,9.6c-0.1,0-0.1,0-0.2,0
						c-5,0.2-9.2-3.8-9.4-8.8C-201.8,5.1-201.8,5-201.8,4.8 M-185.1,4.8c0-4-3.2-7.3-7.2-7.3s-7.3,3.2-7.3,7.2s3.2,7.3,7.2,7.3h0.1
						c3.9,0.1,7.2-3,7.3-6.9C-185.1,5-185.1,4.9-185.1,4.8"/>
					<path id="Path_738" class="st1" d="M-175.2-6.6h10.9c5.3,0,8.6,2.7,8.6,7.3c0,4.5-2.7,6.8-7.6,7l8.6,8.6h-2.9L-167.5,6h3.3
						c3.8,0,6.2-1.7,6.2-5.3c0-3.5-2.5-5.4-6.3-5.4h-8.7v20.9h-2.1L-175.2-6.6z M-172.4-4h8c3.5,0,5.6,1.6,5.6,4.7
						c0,3.2-2,4.6-5.5,4.6h-5l10.6,11h-2.8l-8.7-9.3v9.3h-2.2L-172.4-4L-172.4-4z M-164,3.5c1.9,0,3.1-0.9,3.1-2.8
						c0-1.8-1.2-2.8-3.1-2.8h-6.3v5.6H-164z"/>
					<path id="Path_739" class="st1" d="M-150.6-6.6h18v1.9h-15.9v19h15.9v1.9h-18V-6.6z M-147.8-3.9h15.2V-2h-13v4h9.1v1.8h-11.3
						V-3.9z M-147.8,4.5h11.3v1.8h-9.1v5.3h13v2h-15.2V4.5z"/>
					<path id="Path_740" class="st1" d="M-118.5-6.6h17.4v1.9h-15.3v20.9h-2.1V-6.6z M-115.7-3.9h14.6V-2h-12.4v4h8.6v1.8h-10.7
						L-115.7-3.9z M-115.7,4.5h10.7v1.8h-8.6v9.8h-2.2L-115.7,4.5z"/>
					<path id="Path_741" class="st1" d="M-99,4.8C-99.2-2-93.9-7.6-87.1-7.8C-80.3-8-74.7-2.7-74.5,4c0.2,6.8-5.1,12.4-11.9,12.6
						c-0.1,0-0.3,0-0.4,0c-6.5,0.2-12-4.9-12.2-11.5C-98.9,5.1-99,5-99,4.8 M-76.6,4.8c0.1-5.6-4.3-10.2-9.9-10.3
						s-10.2,4.3-10.3,9.9c-0.1,5.6,4.3,10.2,9.9,10.3c0.1,0,0.1,0,0.2,0c5.4,0.2,9.9-4.1,10.1-9.5C-76.6,5.1-76.6,5-76.6,4.8
						 M-96.1,4.8c-0.1-5.2,4-9.5,9.2-9.6s9.5,4,9.6,9.2s-4,9.5-9.2,9.6c-0.1,0-0.1,0-0.2,0c-5,0.2-9.2-3.8-9.4-8.8
						C-96.1,5.1-96.1,5-96.1,4.8 M-79.5,4.8c0-4-3.2-7.3-7.2-7.3S-94,0.7-94,4.7s3.2,7.3,7.2,7.3h0.1c3.9,0.1,7.2-3,7.3-6.9
						C-79.5,5-79.5,4.9-79.5,4.8"/>
					<path id="Path_742" class="st1" d="M-69.6-6.6h10.9c5.3,0,8.6,2.7,8.6,7.3c0,4.5-2.7,6.8-7.6,7l8.6,8.6H-52L-61.9,6h3.3
						c3.8,0,6.2-1.7,6.2-5.3c0-3.5-2.5-5.4-6.3-5.4h-8.7v20.9h-2.1L-69.6-6.6z M-66.7-4h8c3.5,0,5.6,1.6,5.6,4.7
						c0,3.2-2,4.6-5.5,4.6h-5l10.6,11h-2.8L-64.5,7v9.3h-2.2V-4z M-58.3,3.5c1.9,0,3.1-0.9,3.1-2.8c0-1.8-1.2-2.8-3.1-2.8h-6.3v5.6
						H-58.3z"/>
					<path id="Path_743" class="st1" d="M-30,7l-9.6-13.5h2.5l9.3,13v9.8H-30V7z M-36.2-6.6h2.6l6.2,8.9l6.2-8.9h2.6l-8.7,12.3
						L-36.2-6.6z M-27.2,6.5l9.3-13h2.5L-25,7v9.2h-2.2V6.5z"/>
					<path id="Path_744" class="st1" d="M-15.1,4.8C-15.3-1.9-10-7.6-3.2-7.8S9.2-2.7,9.4,4c0.2,6.8-5.1,12.4-11.9,12.6
						c-0.1,0-0.3,0-0.4,0c-6.5,0.2-12-4.9-12.2-11.5C-15.1,5.1-15.1,5-15.1,4.8 M7.3,4.8C7.4-0.8,3-5.4-2.6-5.5S-12.8-1.2-13,4.4
						C-13.1,10-8.6,14.6-3,14.7c0.1,0,0.1,0,0.2,0c5.4,0.2,9.9-4.1,10.1-9.5C7.3,5.1,7.3,5,7.3,4.8 M-12.2,4.8
						c-0.1-5.2,4-9.5,9.2-9.6s9.5,4,9.6,9.2c0.1,5.2-4,9.5-9.2,9.6c-0.1,0-0.1,0-0.2,0c-5,0.2-9.2-3.8-9.4-8.8
						C-12.2,5.1-12.2,5-12.2,4.8 M4.4,4.8c0-4-3.2-7.3-7.2-7.3s-7.3,3.2-7.3,7.2S-6.9,12-2.9,12h0.1c3.9,0.1,7.2-3,7.3-6.9
						C4.4,5,4.4,4.9,4.4,4.8"/>
					<path id="Path_745" class="st1" d="M13.9,5.1V-6.6H16V5.1c0,6.1,3.1,9.5,8.7,9.5s8.7-3.4,8.7-9.5V-6.6h2.2V5.1
						c0,7-3.8,11.4-10.9,11.4S13.9,12.1,13.9,5.1 M16.7,5.1V-6.6h2.2V5c0,4.3,1.7,6.8,5.8,6.8s5.8-2.5,5.8-6.8V-6.6h2.2V5.1
						c0,5.7-2.8,8.8-8,8.8S16.7,10.8,16.7,5.1"/>
				</g>
			</g>
		</g>
		<path id="Path_746" class="st0" d="M-265.3-26.1c0-6.6,5.3-11.9,11.9-11.9c0.1,0,0.2,0,0.3,0c3.7-0.1,7.2,1.5,9.6,4.3l-1.7,1.3
			c-1.9-2.4-4.8-3.7-7.9-3.7c-5.5-0.1-10,4.1-10.1,9.6s4.1,10,9.6,10.1c0.2,0,0.4,0,0.5,0c3.3,0,6.4-1.6,8.3-4.3l0.1-0.1v-5.5h2.2
			v6.2c-2.4,3.5-6.3,5.6-10.5,5.7c-6.5,0.2-12-4.9-12.2-11.5C-265.3-25.9-265.3-26-265.3-26.1 M-262.5-26.1c0-5,4-9.1,9.1-9.2
			c0.1,0,0.2,0,0.3,0c2.8,0,5.5,1.2,7.3,3.4l-1.6,1.2c-1.4-1.7-3.5-2.7-5.7-2.7c-3.9-0.1-7.2,3-7.3,6.9c0,0.1,0,0.2,0,0.3
			c0,4,3.3,7.2,7.3,7.2c2.1,0,4.1-1,5.5-2.6v-4.6h2.1v5.3c-1.8,2.4-4.6,3.9-7.7,3.9c-5,0.2-9.2-3.8-9.4-8.8
			C-262.5-25.9-262.5-26-262.5-26.1"/>
		<path id="Path_747" class="st0" d="M-237.5-37.6h2.1v22.8h-2.1V-37.6z M-234.6-37.6h2.2v22.8h-2.2V-37.6z"/>
		<path id="Path_748" class="st0" d="M-229.7-37.6h2.4l10.3,19.8l10.3-19.8h2.3L-217-13.8L-229.7-37.6z M-226.5-37.6h2.4l7.1,14.2
			l7.2-14.2h2.3l-9.5,18.2L-226.5-37.6z"/>
		<path id="Path_749" class="st0" d="M-201.6-37.6h18v1.9h-15.9v19h15.9v1.9h-18V-37.6z M-198.8-34.9h15.2v1.9h-13v4h9.1v1.8h-11.3
			V-34.9z M-198.8-26.4h11.3v1.8h-9.1v5.3h13v2h-15.2V-26.4z"/>
		<path id="Path_750" class="st0" d="M-169.5-37.6h10.6c5.3,0,8.6,3,8.6,7.6s-3,7.6-8.3,7.6h-5.9v7.6h-2.2v-9.4h7.9
			c3.8,0,6.2-2.2,6.2-5.7s-2.5-5.7-6.3-5.7h-8.5v20.9h-2.1V-37.6z M-166.7-35h7.8c3.5,0,5.6,1.9,5.6,5c0,3.2-2,5-5.5,5h-7.9
			L-166.7-35z M-158.9-26.8c1.7,0.2,3.2-1,3.4-2.6c0-0.2,0-0.4,0-0.6c0.1-1.7-1.2-3.1-2.9-3.2c-0.2,0-0.4,0-0.5,0h-5.6v6.3
			L-158.9-26.8z"/>
		<path id="Path_751" class="st0" d="M-138.9-38.5l13.1,23.8h-2.3l-10.8-19.8l-10.9,19.8h-2.3L-138.9-38.5z M-145.6-20.9h13.3
			l3.4,6.2h-2.3l-2.4-4.5h-10.6l-2.4,4.5h-2.4L-145.6-20.9z M-138.9-33l6.2,11.4h-12.5L-138.9-33z M-135.8-23.4l-3.1-5.8l-3.1,5.8
			C-142-23.4-135.8-23.4-135.8-23.4z"/>
		<path id="Path_752" class="st0" d="M-123-37.6h2.1v22.8h-2.1V-37.6z M-120.2-37.6h2.4l11.3,15.4v-15.4h2.1V-16L-120.2-37.6z
			 M-120.2-36.3l15.8,21.6h-2.3L-118-30.1v15.3h-2.2V-36.3z M-103.7-37.6h2.1v22.8h-2.1V-37.6z"/>
		<path id="Path_753" class="st0" d="M-95.3-37.6h7.8c8.2,0,13.3,4.8,13.3,11.5s-5.2,11.3-13.4,11.3h-7.8L-95.3-37.6L-95.3-37.6z
			 M-87.6-16.6c6.9,0,11.2-3.6,11.2-9.4c0-5.9-4.3-9.6-11.2-9.6h-5.6v19C-93.2-16.6-87.6-16.6-87.6-16.6z M-92.5-35h4.9
			c6.5,0,10.5,3.4,10.5,8.9c0,5.4-3.9,8.7-10.5,8.7h-4.9V-35z M-87.6-19.3c5.8,0,8.3-2.6,8.3-6.8s-2.6-6.9-8.3-7h-2.8v13.8H-87.6z"
			/>
		<path id="Path_754" class="st0" d="M-60.6-38.5l13.1,23.8h-2.3l-10.8-19.8l-11,19.8h-2.3L-60.6-38.5z M-67.4-20.9h13.3l3.4,6.2
			H-53l-2.4-4.6H-66l-2.4,4.5h-2.4L-67.4-20.9z M-60.7-33l6.2,11.4H-67L-60.7-33z M-57.6-23.4l-3.1-5.8l-3.1,5.8
			C-63.8-23.4-57.6-23.4-57.6-23.4z"/>
		<path id="Path_755" class="st0" d="M-23.1-17.3l-0.7,0.6c-1.6,1.5-3.6,2.3-5.7,2.3c-5,0-7.8-3.2-7.8-7.1c0-2.1,1-4,2.7-5.1
			l1.1-0.9c-1.6-1.6-2.4-2.8-2.4-4.6c0-3.2,2.6-5.8,6.4-5.8c4,0,6.6,2.5,6.6,5.8c0,2.3-1,3.6-3.3,5.4l2.9,2.9l2.4-2.9l1.3,1.2
			l-3.7,4.3l-6.1-5.9l1.6-0.9c2.1-1.2,2.9-2.4,2.9-4.2c0-2.4-1.9-4.1-4.6-4.1c-2.3-0.2-4.3,1.5-4.5,3.8c0,0.1,0,0.2,0,0.2
			c0,1.4,0.9,2.5,2.2,3.8l1.3,1.2l-1.7,1c-1.8,0.9-3,2.6-3.1,4.6c0,3.2,2.4,5.3,5.8,5.3c2.2-0.1,4.1-1.2,5.4-2.9l0.9-1l4.5,4.3
			l-1.3,1.5L-23.1-17.3z M-34.6-21.5c0.1-1.7,1.2-3.3,2.7-4l1.9-1.1l6.2,6l-0.9,1c-1.1,1.6-2.9,2.6-4.8,2.7
			C-32.6-16.9-34.6-18.7-34.6-21.5 M-31.3-28.8c-1.6-1.5-2-2.3-2-3.3c0-1.9,1.6-3.4,3.6-3.4c0.1,0,0.2,0,0.2,0
			c2.3,0,3.9,1.4,3.9,3.4c0,1.6-0.7,2.5-2.6,3.6l-1.7,1L-31.3-28.8z M-26.6-20l0.6-0.6l-4.2-4l-0.7,0.5c-1,0.5-1.6,1.4-1.7,2.5
			c0,1.6,1.3,2.9,2.9,2.8c0.1,0,0.2,0,0.3,0C-28.3-18.7-27.3-19.2-26.6-20 M-27.5-32.2c0-1.1-0.8-1.7-2-1.7c-1-0.1-1.8,0.5-2,1.5
			c0,0.1,0,0.2,0,0.2c0,0.9,0.7,1.6,1.8,2.6C-28.4-30.5-27.5-31-27.5-32.2 M-22.8-20.6l3.7-4.3l1.3,1.2l-2.6,2.9l3.2,3.1l-1.3,1.4
			L-22.8-20.6z"/>
		<path id="Path_756" class="st0" d="M-316.7,4.5c0-6.6,5.3-11.9,11.9-11.9c0.1,0,0.2,0,0.3,0c3.7-0.1,7.2,1.5,9.6,4.3l-1.7,1.3
			c-1.9-2.4-4.8-3.7-7.9-3.7c-5.5-0.1-10,4.1-10.1,9.6s4.1,10,9.6,10.1c0.2,0,0.4,0,0.5,0c3.3,0,6.4-1.6,8.3-4.3l0.1-0.1V4.3h2.2
			v6.2c-2.4,3.5-6.3,5.6-10.5,5.7c-6.5,0.2-12-4.9-12.2-11.5C-316.7,4.7-316.7,4.6-316.7,4.5 M-313.8,4.5c0-5,4-9.1,9.1-9.2
			c0.1,0,0.2,0,0.3,0c2.8,0,5.5,1.2,7.3,3.4l-1.6,1.2c-1.4-1.7-3.5-2.7-5.7-2.7c-4,0-7.2,3.2-7.2,7.2s3.2,7.2,7.2,7.2l0,0
			c2.1,0,4.2-0.9,5.5-2.6V4.4h2.1v5.3c-1.8,2.4-4.6,3.9-7.7,3.9c-5,0.2-9.2-3.8-9.4-8.8C-313.8,4.7-313.8,4.6-313.8,4.5"/>
		<path id="Path_757" class="st0" d="M-288.8-7h18v2h-15.9v19h15.9v1.9h-18V-7z M-286-4.3h15.2v1.9h-13v4h9.1v1.8H-286V-4.3z
			 M-286,4.2h11.3V6h-9.1v5.3h13v2H-286V4.2z"/>
		<path id="Path_758" class="st0" d="M-267.9-7h19.5v2h-19.4L-267.9-7z M-260.7-2.4h-7.2v-1.9h9.4v20.2h-2.1L-260.7-2.4L-260.7-2.4z
			 M-257.9-4.3h9.4v1.9h-7.2v18.3h-2.1V-4.3H-257.9z"/>
		<path id="Path_759" class="st0" d="M-235.8-7h2.1v22.8h-2.1V-7z M-230.8,2.1v13.8h-2.1V-5.5l10.2,18.3l10.1-18.3v21.3h-2.1V2.1
			l-7.9,14.4L-230.8,2.1z M-233-7h2.1l8,14.6l8.1-14.6h2l-10.1,18.3L-233-7z M-212-7h2.1v22.8h-2.1V-7z"/>
		<path id="Path_760" class="st0" d="M-205,4.4c-0.2-6.8,5.1-12.4,11.9-12.6c6.8-0.2,12.4,5.1,12.6,11.9c0.2,6.8-5.1,12.4-11.9,12.6
			c-0.1,0-0.3,0-0.4,0c-6.5,0.2-12-4.9-12.2-11.5C-205,4.7-205,4.6-205,4.4 M-182.6,4.5c0.1-5.6-4.3-10.2-9.9-10.3
			c-5.6-0.1-10.2,4.3-10.3,9.9s4.3,10.2,9.9,10.3c0.1,0,0.1,0,0.2,0c5.4,0.2,9.9-4.1,10.1-9.5C-182.6,4.7-182.6,4.6-182.6,4.5
			 M-202.1,4.5c-0.1-5.2,4-9.5,9.2-9.6s9.5,4,9.6,9.2s-4,9.5-9.2,9.6c-0.1,0-0.1,0-0.2,0c-5,0.2-9.2-3.8-9.4-8.8
			C-202.1,4.7-202.1,4.6-202.1,4.5 M-185.5,4.5c0-4-3.2-7.3-7.2-7.3s-7.3,3.2-7.3,7.2s3.2,7.3,7.2,7.3h0.1c3.9,0.1,7.2-3,7.3-6.9
			C-185.5,4.7-185.5,4.6-185.5,4.5"/>
		<path id="Path_761" class="st0" d="M-175.6-7h10.9c5.3,0,8.6,2.7,8.6,7.3c0,4.5-2.7,6.8-7.6,7l8.6,8.6h-2.9l-9.9-10.3h3.3
			c3.8,0,6.2-1.7,6.2-5.3c0-3.5-2.5-5.4-6.3-5.4h-8.7v20.9h-2.1L-175.6-7z M-172.7-4.3h8c3.5,0,5.6,1.6,5.6,4.7c0,3.2-2,4.6-5.5,4.6
			h-5l10.6,11h-2.8l-8.7-9.3V16h-2.2L-172.7-4.3z M-164.3,3.1c1.9,0,3.1-0.9,3.1-2.8c0-1.8-1.2-2.8-3.1-2.8h-6.3v5.6
			C-170.6,3.1-164.3,3.1-164.3,3.1z"/>
		<path id="Path_762" class="st0" d="M-151-7h18v2h-15.9v19h15.9v1.9h-18V-7z M-148.2-4.3h15.2v1.9h-13v4h9.1v1.8h-11.3V-4.3z
			 M-148.2,4.2h11.3V6h-9.1v5.3h13v2h-15.2V4.2z"/>
		<path id="Path_763" class="st0" d="M-118.9-7h17.4v2h-15.3v20.9h-2.1V-7z M-116.1-4.3h14.6v1.9h-12.4v4h8.6v1.8H-116L-116.1-4.3z
			 M-116.1,4.2h10.7V6h-8.6v9.8h-2.2L-116.1,4.2L-116.1,4.2z"/>
		<path id="Path_764" class="st0" d="M-99.3,4.4C-99.5-2.3-94.2-8-87.5-8.2C-80.7-8.4-75-3.1-74.8,3.7s-5.1,12.4-11.9,12.6
			c-0.1,0-0.3,0-0.4,0c-6.5,0.2-12-4.9-12.2-11.5C-99.3,4.7-99.3,4.6-99.3,4.4 M-77,4.5c0.1-5.6-4.3-10.2-9.9-10.3
			C-92.5-6-97.1-1.6-97.2,4s4.3,10.2,9.9,10.3c0.1,0,0.1,0,0.2,0c5.4,0.2,9.9-4.1,10.1-9.5C-77,4.7-77,4.6-77,4.5 M-96.5,4.5
			c-0.1-5.2,4-9.5,9.2-9.6s9.5,4,9.6,9.2s-4,9.5-9.2,9.6c-0.1,0-0.1,0-0.2,0c-5,0.2-9.2-3.8-9.4-8.8C-96.5,4.7-96.5,4.6-96.5,4.5
			 M-79.8,4.5c0-4-3.2-7.3-7.2-7.3s-7.3,3.2-7.3,7.2s3.2,7.3,7.2,7.3h0.1c3.9,0.1,7.2-3,7.3-6.9C-79.8,4.7-79.8,4.6-79.8,4.5"/>
		<path id="Path_765" class="st0" d="M-70-7h10.9c5.3,0,8.6,2.7,8.6,7.3c0,4.5-2.7,6.8-7.6,7l8.6,8.6h-2.9l-9.9-10.3h3.3
			c3.8,0,6.2-1.7,6.2-5.3c0-3.5-2.5-5.4-6.3-5.4h-8.7v20.9H-70V-7z M-67.1-4.3h8c3.5,0,5.6,1.6,5.6,4.7c0,3.2-2,4.6-5.5,4.6h-5
			l10.6,11h-2.8l-8.7-9.3V16h-2.2V-4.3z M-58.7,3.1c1.9,0,3.1-0.9,3.1-2.8c0-1.8-1.2-2.8-3.1-2.8H-65v5.6C-65,3.1-58.7,3.1-58.7,3.1
			z"/>
		<path id="Path_766" class="st0" d="M-30.4,6.6L-40-7h2.5l9.3,13v9.8h-2.1L-30.4,6.6z M-36.6-7h2.6l6.2,8.9l6.2-8.9h2.6l-8.7,12.3
			L-36.6-7z M-27.5,6.1l9.3-13h2.5l-9.6,13.5v9.2h-2.2L-27.5,6.1z"/>
		<path id="Path_767" class="st0" d="M-15.4,4.4C-15.6-2.3-10.3-8-3.6-8.2C3.2-8.4,8.8-3.1,9.1,3.7C9.3,10.4,4,16.1-2.8,16.3
			c-0.1,0-0.3,0-0.4,0c-6.5,0.2-12-4.9-12.2-11.5C-15.4,4.7-15.4,4.6-15.4,4.4 M6.9,4.5C7-1.1,2.6-5.8-3-5.9C-8.6-6-13.2-1.6-13.3,4
			S-9,14.2-3.4,14.3c0.1,0,0.1,0,0.2,0c5.4,0.2,9.9-4.1,10.1-9.5C6.9,4.7,6.9,4.6,6.9,4.5 M-12.6,4.5c-0.1-5.2,4-9.5,9.2-9.6
			s9.5,4,9.6,9.2c0.1,5.2-4,9.5-9.2,9.6c-0.1,0-0.1,0-0.2,0c-5,0.2-9.2-3.8-9.4-8.8C-12.6,4.7-12.6,4.6-12.6,4.5 M4.1,4.5
			c0-4-3.2-7.3-7.2-7.3s-7.3,3.2-7.3,7.2s3.2,7.3,7.2,7.3h0.1c3.9,0.1,7.2-3,7.3-6.9C4.1,4.7,4.1,4.6,4.1,4.5"/>
		<path id="Path_768" class="st0" d="M13.5,4.7V-7h2.1V4.7c0,6.1,3.1,9.5,8.7,9.5S33,10.8,33,4.7V-7h2.2V4.7c0,7-3.8,11.4-10.9,11.4
			C17.2,16.1,13.5,11.8,13.5,4.7 M16.4,4.7V-7h2.2V4.6c0,4.3,1.7,6.8,5.8,6.8s5.8-2.5,5.8-6.8V-6.9h2.2V4.8c0,5.7-2.8,8.8-8,8.8
			S16.4,10.5,16.4,4.7"/>
	</g>
</g>
</svg>
