<?xml version="1.0" encoding="utf-8"?>
<!-- Generator: Adobe Illustrator 28.0.0, SVG Export Plug-In . SVG Version: 6.00 Build 0)  -->
<svg version="1.1" id="Layer_1" xmlns="http://www.w3.org/2000/svg" xmlns:xlink="http://www.w3.org/1999/xlink" x="0px" y="0px"
	 viewBox="0 0 544.9 125" style="enable-background:new 0 0 544.9 125;" xml:space="preserve">
<style type="text/css">
	.st0{fill:#FFFFFF;}
	.st1{fill:#9E0505;}
</style>
<g>
	<path class="st0" d="M16.7,111.4h1.8l2.8-11.9h-2l0.4-1.9H25c0.7,0,1.4,0.1,2,0.2c2.3,0.6,3.5,2.2,3.5,4.3c0,3.1-2.5,5.8-6.7,5.8
		c-0.8,0-1.8,0-2.2,0l-0.8,3.6H23l-0.5,1.9h-6.1L16.7,111.4z M28.2,102.2c0-1.2-0.7-2.1-2-2.5c-0.4-0.1-0.9-0.2-1.4-0.2h-1.3
		l-1.5,6.4c0.6,0,1.3,0,2,0C26.8,106,28.2,104.2,28.2,102.2z"/>
	<path class="st0" d="M35.4,103l-1.6,6.3c-0.1,0.3-0.1,0.7-0.1,1c0,0.9,0.6,1.5,1.4,1.5c1.4,0,2.5-1.1,3-3.1l1.4-5.6h2.1l-1.8,7.3
		c-0.1,0.4-0.2,0.8-0.2,1.1c0,0.5,0.2,0.7,0.6,0.7c0.4,0,0.9-0.4,1.4-1.7l0.9,0.3c-0.6,2.1-1.7,2.8-2.9,2.8s-2-0.8-2-2.1v-0.2
		c-0.8,1.4-2.1,2.4-3.5,2.4c-1.5,0-2.7-1.1-2.7-2.7c0-0.5,0.1-1.1,0.2-1.7l1.1-4.3H31l0.5-1.8h3.9V103z"/>
	<path class="st0" d="M46.3,104.8h-1.9l0.5-1.8h3.7l-0.7,2.9c1.3-2,2.5-3.1,3.6-3.1c0.8,0,1.5,0.6,1.5,1.4s-0.7,1.5-1.4,1.5
		s-1.3-0.5-1.4-1.1c-0.7,0.3-2.2,1.8-2.8,4l-1.2,4.6h-2.1L46.3,104.8z"/>
	<path class="st0" d="M53.2,109c0-3.3,2.7-6.1,6-6.1c2.3,0,3.8,1.4,3.8,2.9c0,0.9-0.6,1.6-1.4,1.6c-0.6,0-1.2-0.5-1.2-1.3
		c0-0.3,0.2-0.7,0.4-0.9c-0.3-0.4-0.9-0.6-1.6-0.6c-1.9,0-3.9,1.6-3.9,4.2c0,1.8,1.2,3,3,3c1.2,0,2.4-0.5,3.5-1.3v1.9
		c-1,0.7-2.3,1.1-3.6,1.1C55.4,113.6,53.2,111.9,53.2,109z"/>
	<path class="st0" d="M67.9,97.6H66l0.5-1.8h4l-2.2,9.2c0.7-1.2,2-2.2,3.3-2.2c1.6,0,2.9,1.1,2.9,2.9c0,0.5-0.1,1.1-0.3,1.7
		l-0.8,3.1c-0.1,0.3-0.1,0.6-0.1,0.8c0,0.5,0.2,0.8,0.6,0.8s0.9-0.4,1.3-1.7l0.9,0.3c-0.6,1.9-1.5,2.8-2.8,2.8
		c-1.4,0-2.2-0.9-2.2-2.1c0-0.3,0.1-0.8,0.2-1.2l0.9-3.1c0.1-0.4,0.1-0.7,0.1-1.1c0-0.9-0.6-1.5-1.6-1.5c-1.3,0-2.5,1.1-3,3.2
		l-1.3,5.6h-2.1L67.9,97.6z"/>
	<path class="st0" d="M77.5,109.4c0-3.5,2.4-6.6,5.4-6.6c1.6,0,2.7,1.1,3.1,2.4l0.7-2.3h2l-1.8,7.4c-0.1,0.4-0.2,0.8-0.2,1.1
		c0,0.5,0.2,0.7,0.6,0.7s0.9-0.4,1.3-1.7l0.9,0.3c-0.6,2.1-1.7,2.8-2.9,2.8c-1.2,0-2-0.8-2-2.1v-0.1c-0.9,1.2-2.1,2.2-3.7,2.2
		C79,113.6,77.5,112,77.5,109.4z M85.6,107.2c0-1.5-0.8-2.5-2.4-2.5c-2,0-3.5,2.2-3.5,4.5c0,1.5,0.7,2.6,2.2,2.6
		C84,111.8,85.6,109.5,85.6,107.2z"/>
	<path class="st0" d="M91.3,112.3c-0.4-0.4-0.6-0.9-0.6-1.4c0-0.8,0.5-1.3,1.2-1.3s1.2,0.5,1.2,1.2c0,0.2-0.1,0.5-0.2,0.7
		c0.1,0.1,0.2,0.2,0.4,0.3c0.5,0.2,1.2,0.4,1.9,0.4c1.1,0,2-0.4,2-1.3s-1-1.3-2.2-1.8c-1.4-0.6-2.8-1.4-2.8-3s1.4-3.1,4-3.1
		c1.4,0,2.6,0.5,3.3,1.2c0.4,0.4,0.6,0.9,0.6,1.3c0,0.8-0.6,1.3-1.2,1.3s-1.2-0.5-1.2-1.2c0-0.2,0-0.4,0.2-0.7
		c-0.1,0-0.2-0.1-0.4-0.2c-0.4-0.1-0.9-0.2-1.4-0.2c-1.1,0-1.9,0.4-1.9,1.2c0,0.8,1,1.2,2.2,1.8c1.4,0.6,2.8,1.4,2.8,3
		c0,2-1.7,3.2-4.1,3.2C93.5,113.6,92.1,113,91.3,112.3z"/>
	<path class="st0" d="M103.4,108.9v0.4c0,1.6,1.2,2.6,3.1,2.6c1.1,0,2.1-0.2,3.4-0.9l-0.4,2c-1.1,0.5-2,0.7-3.4,0.7
		c-2.5,0-4.8-1.6-4.8-4.4c0-3.5,2.6-6.3,5.7-6.3c2.5,0,4.2,1.4,4.2,3.9c0,0.6-0.1,1.4-0.4,2.2h-7.4L103.4,108.9L103.4,108.9z
		 M103.7,107.4h5.4c0.1-0.3,0.1-0.6,0.1-0.9c0-1.1-0.7-1.9-2.2-1.9S104.3,105.7,103.7,107.4z"/>
	<path class="st0" d="M120.1,115.5c0.1-0.3,0.5-1.6,0.7-2.4c-1.8-0.5-3.1-1.7-3.1-2.9c0-0.8,0.5-1.5,1.3-1.5c0.7,0,1.2,0.6,1.2,1.2
		c0,0.4-0.2,0.7-0.4,0.9c0.2,0.3,0.8,0.6,1.6,0.8l1.2-3.8c-1.5-0.7-3.1-1.5-3.1-3.4c0-1.8,1.8-3.5,4.7-3.5c0.1,0,0.3,0,0.4,0
		l0.5-1.6l1.5,0.4l-0.5,1.5c1.6,0.5,2.7,1.5,2.7,2.6c0,0.9-0.6,1.5-1.3,1.5s-1.2-0.5-1.2-1.2c0-0.3,0.1-0.6,0.4-0.9
		c-0.2-0.2-0.6-0.4-1.1-0.5l-1.2,3.7c1.6,0.7,3.3,1.6,3.3,3.4c0,2.1-1.8,3.6-4.7,3.6c-0.2,0-0.5,0-0.7,0l-0.8,2.5L120.1,115.5z
		 M123.2,105.8l1-3.3c-1.7,0-2.5,0.7-2.5,1.6C121.7,104.9,122.4,105.4,123.2,105.8z M123.8,108.3l-1.1,3.5h0.1
		c1.6,0,2.7-0.6,2.7-1.7C125.6,109.3,124.8,108.8,123.8,108.3z"/>
	<path class="st0" d="M128.9,112.9c0-1,0.6-1.6,1.4-1.6c0.7,0,1.3,0.6,1.3,1.2c0,0.4-0.3,0.9-0.6,1c0.2,0.4,1.3,1.1,3,1.1
		c2,0,3.3-1.3,3.3-2.8c0-1.6-1.4-2.7-3.6-2.7h-0.6l0.4-1.7h0.6c2.6,0,4.4-1.1,4.4-2.8c0-1.3-1.1-2.1-2.8-2.1c-1.2,0-1.8,0.3-2.2,0.6
		c0.3,0.2,0.4,0.5,0.4,0.9c0,0.7-0.6,1.2-1.3,1.2s-1.3-0.5-1.3-1.4c0-1.6,2-3,4.5-3c3,0,4.8,1.6,4.8,3.7c0,1.9-1.4,3.4-4.2,3.8
		c2,0.7,2.9,2.1,2.9,3.6c0,2.5-2.3,4.5-5.4,4.5C131.1,116.4,128.9,114.7,128.9,112.9z"/>
	<path class="st0" d="M142.4,108c0-3.6,2.7-7.2,6.6-7.2c3.4,0,5.3,2.5,5.3,5.6c0,3.6-2.7,7.2-6.6,7.2
		C144.4,113.6,142.4,111.1,142.4,108z M152.2,106.4c0-2.2-1.3-3.8-3.2-3.8c-2.5,0-4.4,2.5-4.4,5.4c0,2.2,1.3,3.8,3.2,3.8
		C150.3,111.8,152.2,109.2,152.2,106.4z"/>
	<path class="st0" d="M161.6,111.5c0-0.3,0.1-0.8,0.2-1.1l1.4-5.5h-1.9l0.5-1.8h4.1l-1.9,7.3c-0.1,0.4-0.2,0.8-0.2,1.1
		c0,0.5,0.2,0.7,0.6,0.7c0.5,0,0.9-0.4,1.4-1.7l0.9,0.3c-0.6,2.1-1.6,2.8-2.9,2.8C162.3,113.5,161.6,112.7,161.6,111.5z M163.6,99.9
		c0-0.8,0.6-1.4,1.4-1.4c0.7,0,1.4,0.6,1.4,1.4s-0.6,1.4-1.4,1.4C164.2,101.3,163.6,100.7,163.6,99.9z"/>
	<path class="st0" d="M175.2,111.5c0-0.3,0.1-0.8,0.2-1.2l0.9-3.1c0.1-0.4,0.2-0.7,0.2-1.1c0-0.9-0.6-1.5-1.6-1.5
		c-1.3,0-2.5,1.1-3,3.1l-1.4,5.6h-2.1l2.2-8.6h-1.9l0.5-1.8h3.7l-0.6,2.4c0.8-1.4,2.2-2.6,3.6-2.6c1.6,0,2.8,1.1,2.8,2.9
		c0,0.5-0.1,1.1-0.3,1.7l-0.9,3c-0.1,0.3-0.1,0.6-0.1,0.8c0,0.5,0.2,0.8,0.6,0.8c0.4,0,0.9-0.4,1.3-1.7l0.9,0.3
		c-0.6,1.9-1.5,2.8-2.8,2.8C176,113.5,175.2,112.7,175.2,111.5z"/>
	<path class="st0" d="M186.5,117c-0.5-0.5-0.6-0.8-0.6-1.3c0-0.8,0.6-1.4,1.3-1.4s1.3,0.6,1.3,1.3c0,0.2,0,0.5-0.1,0.6
		c0.3,0.2,0.9,0.4,1.7,0.4c1,0,1.7-0.3,2.3-0.9c0.6-0.5,0.9-1.4,1.2-2.5l0.5-1.9c-0.9,1.2-2.1,2-3.6,2c-2.3,0-3.8-1.7-3.8-4.2
		c0-3.4,2.3-6.3,5.5-6.3c1.8,0,2.8,1.2,3.2,2.4l0.6-2.2h1.9l-2.5,10.7c-0.3,1.4-0.7,2.4-1.5,3.2c-0.9,0.9-2.1,1.3-3.8,1.3
		C188.7,118.2,187.1,117.6,186.5,117z M194.9,107.2c0-1.5-1-2.5-2.5-2.5c-2,0-3.6,1.9-3.6,4.3c0,1.5,1,2.5,2.4,2.5
		C193.4,111.5,194.9,109.4,194.9,107.2z"/>
	<path class="st0" d="M200,111.5c0-0.3,0.1-0.8,0.2-1.1l1.4-5.5h-1.9l0.5-1.8h4.1l-1.9,7.3c-0.1,0.4-0.2,0.8-0.2,1.1
		c0,0.5,0.2,0.7,0.6,0.7c0.5,0,0.9-0.4,1.4-1.7l0.9,0.3c-0.6,2.1-1.6,2.8-2.9,2.8C200.8,113.5,200,112.7,200,111.5z M202,99.9
		c0-0.8,0.6-1.4,1.4-1.4c0.7,0,1.4,0.6,1.4,1.4s-0.6,1.4-1.4,1.4S202,100.7,202,99.9z"/>
	<path class="st0" d="M208.8,104.8H207l0.4-1.8h1.8l0.7-2.9c0.4-1.6,0.9-2.6,1.7-3.3c0.8-0.8,1.9-1.2,3-1.2c1.4,0,2.1,0.7,2.1,1.6
		s-0.6,1.3-1.3,1.3s-1.2-0.5-1.3-1.1c-0.3,0.1-0.6,0.3-0.9,0.5c-0.5,0.5-0.8,1.3-1.1,2.4l-0.6,2.6h2.7l-0.5,1.8H211l-2,8.6h-2.1
		L208.8,104.8z"/>
	<path class="st0" d="M218.8,104.8l-1.3,5.3c-0.1,0.4-0.1,0.7-0.1,0.9c0,0.6,0.3,0.9,0.8,0.9c0.6,0,1.1-0.2,2.1-0.9l0.7,1
		c-1.3,1.2-2.5,1.5-3.5,1.5c-1.3,0-2.3-0.7-2.3-2.2c0-0.4,0.1-0.8,0.2-1.2l1.3-5.3h-1.9l0.4-1.8h1.9l0.6-2.4l2.3-0.8l-0.8,3.1h3.2
		l-0.5,1.8L218.8,104.8L218.8,104.8z"/>
	<path class="st0" d="M227.9,109c0-3.3,2.7-6.1,6-6.1c2.3,0,3.8,1.4,3.8,2.9c0,0.9-0.6,1.6-1.4,1.6c-0.6,0-1.2-0.5-1.2-1.3
		c0-0.3,0.2-0.7,0.4-0.9c-0.3-0.4-0.9-0.6-1.6-0.6c-1.9,0-3.9,1.6-3.9,4.2c0,1.8,1.2,3,3,3c1.2,0,2.4-0.5,3.5-1.3v1.9
		c-1,0.7-2.3,1.1-3.6,1.1C230.1,113.6,227.9,111.9,227.9,109z"/>
	<path class="st0" d="M239.3,109.4c0-3.5,2.4-6.6,5.4-6.6c1.6,0,2.7,1.1,3.1,2.4l0.7-2.3h2l-1.8,7.4c-0.1,0.4-0.2,0.8-0.2,1.1
		c0,0.5,0.2,0.7,0.6,0.7c0.4,0,0.9-0.4,1.3-1.7l0.9,0.3c-0.6,2.1-1.7,2.8-2.9,2.8s-2-0.8-2-2.1v-0.1c-0.9,1.2-2.1,2.2-3.7,2.2
		C240.8,113.6,239.3,112,239.3,109.4z M247.4,107.2c0-1.5-0.8-2.5-2.4-2.5c-2,0-3.5,2.2-3.5,4.5c0,1.5,0.7,2.6,2.2,2.6
		C245.8,111.8,247.4,109.5,247.4,107.2z"/>
	<path class="st0" d="M255.2,104.8h-1.9l0.5-1.8h3.7l-0.7,2.9c1.3-2,2.5-3.1,3.6-3.1c0.8,0,1.5,0.6,1.5,1.4s-0.7,1.5-1.4,1.5
		c-0.7,0-1.3-0.5-1.4-1.1c-0.7,0.3-2.2,1.8-2.8,4l-1.2,4.6H253L255.2,104.8z"/>
	<path class="st0" d="M267.5,102.8c1.5,0,2.7,1.1,3.1,2.4l1.8-7.6h-1.9l0.4-1.8h4l-3.4,14.5c-0.1,0.5-0.2,0.8-0.2,1.1
		c0,0.5,0.2,0.7,0.6,0.7s0.9-0.4,1.4-1.7l0.9,0.3c-0.6,2.1-1.7,2.8-2.9,2.8c-1.2,0-2-0.8-2-2.1v-0.1c-0.9,1.2-2.1,2.2-3.7,2.2
		c-2.1,0-3.6-1.6-3.6-4.1C262.1,105.9,264.6,102.8,267.5,102.8z M270.2,107.3c0-1.6-0.8-2.6-2.4-2.6c-2,0-3.5,2.2-3.5,4.5
		c0,1.5,0.8,2.6,2.2,2.6C268.6,111.8,270.2,109.6,270.2,107.3z"/>
	<path class="st0" d="M276,112.3c-0.4-0.4-0.6-0.9-0.6-1.4c0-0.8,0.5-1.3,1.2-1.3s1.2,0.5,1.2,1.2c0,0.2-0.1,0.5-0.2,0.7
		c0.1,0.1,0.2,0.2,0.4,0.3c0.5,0.2,1.2,0.4,1.9,0.4c1.1,0,2-0.4,2-1.3s-1-1.3-2.2-1.8c-1.4-0.6-2.8-1.4-2.8-3s1.4-3.1,4-3.1
		c1.4,0,2.6,0.5,3.3,1.2c0.4,0.4,0.6,0.9,0.6,1.3c0,0.8-0.6,1.3-1.2,1.3s-1.2-0.5-1.2-1.2c0-0.2,0-0.4,0.2-0.7
		c-0.1,0-0.2-0.1-0.4-0.2c-0.4-0.1-0.9-0.2-1.4-0.2c-1.1,0-1.9,0.4-1.9,1.2c0,0.8,1,1.2,2.2,1.8c1.4,0.6,2.8,1.4,2.8,3
		c0,2-1.7,3.2-4.1,3.2C278.1,113.6,276.7,113,276,112.3z"/>
	<path class="st0" d="M283.8,116.1c2.2-1.2,3-2.3,3.1-2.9c-0.7-0.3-1.1-1-1.1-1.4c0-0.9,0.7-1.7,1.7-1.7c0.9,0,1.7,0.7,1.7,1.9
		c0,1.7-1.9,3.9-4.9,5L283.8,116.1z"/>
	<path class="st0" d="M298.6,108.9v0.4c0,1.6,1.2,2.6,3.1,2.6c1.1,0,2.1-0.2,3.4-0.9l-0.4,2c-1.1,0.5-2,0.7-3.4,0.7
		c-2.5,0-4.8-1.6-4.8-4.4c0-3.5,2.6-6.3,5.7-6.3c2.5,0,4.2,1.4,4.2,3.9c0,0.6-0.1,1.4-0.4,2.2h-7.4L298.6,108.9L298.6,108.9z
		 M298.9,107.4h5.4c0.1-0.3,0.1-0.6,0.1-0.9c0-1.1-0.7-1.9-2.2-1.9S299.4,105.7,298.9,107.4z"/>
	<path class="st0" d="M308.1,109.4c0-3.5,2.4-6.6,5.4-6.6c1.6,0,2.7,1.1,3.1,2.4l0.7-2.3h2l-1.8,7.4c-0.1,0.4-0.2,0.8-0.2,1.1
		c0,0.5,0.2,0.7,0.6,0.7s0.9-0.4,1.3-1.7l0.9,0.3c-0.6,2.1-1.7,2.8-2.9,2.8c-1.2,0-2-0.8-2-2.1v-0.1c-0.9,1.2-2.1,2.2-3.7,2.2
		C309.6,113.6,308.1,112,308.1,109.4z M316.2,107.2c0-1.5-0.8-2.5-2.4-2.5c-2,0-3.5,2.2-3.5,4.5c0,1.5,0.7,2.6,2.2,2.6
		C314.6,111.8,316.2,109.5,316.2,107.2z"/>
	<path class="st0" d="M324,104.8h-1.9l0.5-1.8h3.7l-0.7,2.9c1.3-2,2.5-3.1,3.6-3.1c0.8,0,1.5,0.6,1.5,1.4s-0.7,1.5-1.4,1.5
		c-0.7,0-1.3-0.5-1.4-1.1c-0.7,0.3-2.2,1.8-2.8,4l-1.2,4.6h-2.1L324,104.8z"/>
	<path class="st0" d="M338.3,111.5c0-0.3,0.1-0.8,0.2-1.2l0.9-3.1c0.1-0.4,0.2-0.7,0.2-1.1c0-0.9-0.6-1.5-1.6-1.5
		c-1.3,0-2.5,1.1-3,3.1l-1.4,5.6h-2.1l2.2-8.6h-1.9l0.5-1.8h3.7l-0.6,2.4c0.8-1.4,2.2-2.6,3.6-2.6c1.6,0,2.8,1.1,2.8,2.9
		c0,0.5-0.1,1.1-0.3,1.7l-0.9,3c-0.1,0.3-0.1,0.6-0.1,0.8c0,0.5,0.2,0.8,0.6,0.8s0.9-0.4,1.3-1.7l0.9,0.3c-0.6,1.9-1.5,2.8-2.8,2.8
		C339.1,113.5,338.3,112.7,338.3,111.5z"/>
	<path class="st0" d="M349.7,109.4c0-3.5,2.4-6.6,5.4-6.6c1.6,0,2.7,1.1,3.1,2.4l0.7-2.3h2l-1.8,7.4c-0.1,0.4-0.2,0.8-0.2,1.1
		c0,0.5,0.2,0.7,0.6,0.7s0.9-0.4,1.3-1.7l0.9,0.3c-0.6,2.1-1.7,2.8-2.9,2.8c-1.2,0-2-0.8-2-2.1v-0.1c-0.9,1.2-2.1,2.2-3.7,2.2
		C351.2,113.6,349.7,112,349.7,109.4z M357.8,107.2c0-1.5-0.8-2.5-2.4-2.5c-2,0-3.5,2.2-3.5,4.5c0,1.5,0.7,2.6,2.2,2.6
		C356.2,111.8,357.8,109.5,357.8,107.2z"/>
	<path class="st0" d="M370.5,115.5c0.1-0.3,0.5-1.6,0.7-2.4c-1.8-0.5-3.1-1.7-3.1-2.9c0-0.8,0.5-1.5,1.3-1.5c0.7,0,1.2,0.6,1.2,1.2
		c0,0.4-0.2,0.7-0.4,0.9c0.2,0.3,0.8,0.6,1.6,0.8l1.2-3.8c-1.5-0.7-3.1-1.5-3.1-3.4c0-1.8,1.8-3.5,4.7-3.5c0.1,0,0.3,0,0.4,0
		l0.5-1.6l1.5,0.4l-0.5,1.5c1.6,0.5,2.7,1.5,2.7,2.6c0,0.9-0.6,1.5-1.3,1.5c-0.7,0-1.2-0.5-1.2-1.2c0-0.3,0.1-0.6,0.4-0.9
		c-0.2-0.2-0.6-0.4-1.1-0.5l-1.2,3.7c1.6,0.7,3.3,1.6,3.3,3.4c0,2.1-1.8,3.6-4.7,3.6c-0.2,0-0.5,0-0.7,0l-0.8,2.5L370.5,115.5z
		 M373.6,105.8l1-3.3c-1.7,0-2.5,0.7-2.5,1.6C372.1,104.9,372.8,105.4,373.6,105.8z M374.2,108.3l-1.1,3.5h0.1
		c1.6,0,2.7-0.6,2.7-1.7C375.9,109.3,375.2,108.8,374.2,108.3z"/>
	<path class="st0" d="M379.5,113.5c0-0.9,0.7-1.5,1.4-1.5s1.3,0.6,1.3,1.3c0,0.3-0.1,0.6-0.2,0.7c0.3,0.3,1.1,0.6,2.1,0.6
		c2.4,0,3.9-1.6,3.9-3.5c0-1.6-1.2-2.6-3.1-2.6c-1,0-1.8,0.2-2.5,0.6l-1.2-0.7l2.4-7.3h7.8l-0.4,2h-6.2l-1.3,4.1
		c0.6-0.3,1.3-0.5,2.2-0.5c2.5,0,4.5,1.6,4.5,4.2c0,2.8-2.5,5.5-6.1,5.5C381.3,116.4,379.5,115,379.5,113.5z"/>
	<path class="st0" d="M400.7,97.6h-1.9l0.5-1.8h4l-2.1,9.2c0.8-1.2,2.1-2.1,3.5-2.1c2.4,0,3.8,1.7,3.8,4.2c0,3.6-2.5,6.6-5.5,6.6
		c-1.5,0-2.8-1-3.2-2.4l-0.6,2.2h-2L400.7,97.6z M406.2,107.3c0-1.6-0.8-2.7-2.3-2.7c-2,0-3.8,2.3-3.8,4.6c0,1.5,0.9,2.5,2.5,2.5
		C404.6,111.7,406.2,109.6,406.2,107.3z"/>
	<path class="st0" d="M410.2,109c0-3.2,2.5-6.1,5.9-6.1c3,0,4.7,2.1,4.7,4.6c0,3.1-2.5,6.1-5.9,6.1
		C411.9,113.6,410.2,111.4,410.2,109z M418.6,107.4c0-1.8-1.2-2.8-2.6-2.8c-2,0-3.6,1.9-3.6,4.4c0,1.8,1.2,2.8,2.6,2.8
		C417,111.8,418.6,109.9,418.6,107.4z"/>
	<path class="st0" d="M429.4,111.5c0-0.3,0.1-0.8,0.2-1.2l0.9-3.1c0.1-0.4,0.2-0.7,0.2-1.1c0-0.9-0.6-1.5-1.6-1.5
		c-1.3,0-2.5,1.1-3,3.1l-1.4,5.6h-2.1l2.2-8.6h-1.9l0.5-1.8h3.7l-0.6,2.4c0.8-1.4,2.2-2.6,3.6-2.6c1.6,0,2.8,1.1,2.8,2.9
		c0,0.5-0.1,1.1-0.3,1.7l-0.9,3c-0.1,0.3-0.1,0.6-0.1,0.8c0,0.5,0.2,0.8,0.6,0.8s0.9-0.4,1.3-1.7l0.9,0.3c-0.6,1.9-1.5,2.8-2.8,2.8
		C430.2,113.5,429.4,112.7,429.4,111.5z"/>
	<path class="st0" d="M440.6,103l-1.6,6.3c-0.1,0.3-0.1,0.7-0.1,1c0,0.9,0.6,1.5,1.4,1.5c1.4,0,2.5-1.1,3-3.1l1.4-5.6h2.1l-1.8,7.3
		c-0.1,0.4-0.2,0.8-0.2,1.1c0,0.5,0.2,0.7,0.6,0.7s0.9-0.4,1.4-1.7l0.9,0.3c-0.6,2.1-1.7,2.8-2.9,2.8c-1.2,0-2-0.8-2-2.1v-0.2
		c-0.8,1.4-2.1,2.4-3.5,2.4c-1.5,0-2.7-1.1-2.7-2.7c0-0.5,0.1-1.1,0.2-1.7l1.1-4.3H436l0.5-1.8h4.1V103z"/>
	<path class="st0" d="M449.5,112.3c-0.4-0.4-0.6-0.9-0.6-1.4c0-0.8,0.5-1.3,1.2-1.3s1.2,0.5,1.2,1.2c0,0.2-0.1,0.5-0.2,0.7
		c0.1,0.1,0.2,0.2,0.4,0.3c0.5,0.2,1.2,0.4,1.9,0.4c1.1,0,2-0.4,2-1.3s-1-1.3-2.2-1.8c-1.4-0.6-2.8-1.4-2.8-3s1.4-3.1,4-3.1
		c1.4,0,2.6,0.5,3.3,1.2c0.4,0.4,0.6,0.9,0.6,1.3c0,0.8-0.6,1.3-1.2,1.3s-1.2-0.5-1.2-1.2c0-0.2,0-0.4,0.2-0.7
		c-0.1,0-0.2-0.1-0.4-0.2c-0.4-0.1-0.9-0.2-1.4-0.2c-1.1,0-1.9,0.4-1.9,1.2c0,0.8,1,1.2,2.2,1.8c1.4,0.6,2.8,1.4,2.8,3
		c0,2-1.7,3.2-4.1,3.2C451.6,113.6,450.3,113,449.5,112.3z"/>
	<path class="st0" d="M464.6,109c0-3.3,2.7-6.1,6-6.1c2.3,0,3.8,1.4,3.8,2.9c0,0.9-0.6,1.6-1.4,1.6c-0.6,0-1.2-0.5-1.2-1.3
		c0-0.3,0.2-0.7,0.4-0.9c-0.3-0.4-0.9-0.6-1.6-0.6c-1.9,0-3.9,1.6-3.9,4.2c0,1.8,1.2,3,3,3c1.2,0,2.4-0.5,3.5-1.3v1.9
		c-1,0.7-2.3,1.1-3.6,1.1C466.8,113.6,464.6,111.9,464.6,109z"/>
	<path class="st0" d="M476,109.4c0-3.5,2.4-6.6,5.4-6.6c1.6,0,2.7,1.1,3.1,2.4l0.7-2.3h2l-1.8,7.4c-0.1,0.4-0.2,0.8-0.2,1.1
		c0,0.5,0.2,0.7,0.6,0.7s0.9-0.4,1.3-1.7l0.9,0.3c-0.6,2.1-1.7,2.8-2.9,2.8c-1.2,0-2-0.8-2-2.1v-0.1c-0.9,1.2-2.1,2.2-3.7,2.2
		C477.5,113.6,476,112,476,109.4z M484.1,107.2c0-1.5-0.8-2.5-2.4-2.5c-2,0-3.5,2.2-3.5,4.5c0,1.5,0.7,2.6,2.2,2.6
		C482.5,111.8,484.1,109.5,484.1,107.2z"/>
	<path class="st0" d="M491.9,104.8H490l0.5-1.8h3.7l-0.7,2.9c1.3-2,2.5-3.1,3.6-3.1c0.8,0,1.5,0.6,1.5,1.4s-0.7,1.5-1.4,1.5
		c-0.7,0-1.3-0.5-1.4-1.1c-0.7,0.3-2.2,1.8-2.8,4l-1.2,4.6h-2.1L491.9,104.8z"/>
	<path class="st0" d="M504.2,102.8c1.5,0,2.7,1.1,3.1,2.4l1.8-7.6h-1.9l0.4-1.8h4l-3.4,14.5c-0.1,0.5-0.2,0.8-0.2,1.1
		c0,0.5,0.2,0.7,0.6,0.7s0.9-0.4,1.4-1.7l0.9,0.3c-0.6,2.1-1.7,2.8-2.9,2.8c-1.2,0-2-0.8-2-2.1v-0.1c-0.9,1.2-2.1,2.2-3.7,2.2
		c-2.1,0-3.6-1.6-3.6-4.1C498.8,105.9,501.3,102.8,504.2,102.8z M506.9,107.3c0-1.6-0.8-2.6-2.4-2.6c-2,0-3.5,2.2-3.5,4.5
		c0,1.5,0.8,2.6,2.2,2.6C505.3,111.8,506.9,109.6,506.9,107.3z"/>
	<path class="st0" d="M512.5,112c0-0.9,0.7-1.6,1.5-1.6s1.5,0.7,1.5,1.6s-0.7,1.6-1.5,1.6S512.5,112.9,512.5,112z M515.8,97.6h2.6
		l-3.3,11.3h-1L515.8,97.6z"/>
	<path class="st0" d="M524.5,104l-0.4-2.5l-1.4,2c-0.3,0.5-0.7,0.6-1.1,0.6c-0.6,0-0.9-0.5-0.9-1c0-0.4,0.3-0.8,0.8-1.1l2.3-1.2
		l-2.4-0.7c-0.6-0.2-1-0.6-1-1.1s0.4-1,1-1c0.4,0,0.7,0.2,1,0.5l1.8,1.8v-2.6c0-0.8,0.4-1.3,0.9-1.3c0.8,0,1.4,0.6,0.8,1.8l-1.2,2.3
		l2.4-0.8c0.2-0.1,0.4-0.1,0.6-0.1c0.6,0,1,0.4,1,1c0,0.7-0.6,1.1-1.5,0.9l-2.5-0.4l1.5,2.1c0.2,0.3,0.3,0.6,0.3,1
		c0,0.5-0.5,0.9-1,0.9C525,105.1,524.6,104.7,524.5,104z"/>
</g>
<g id="Group_28" transform="translate(-104 -10)">
	<g id="Group_152" transform="translate(421 77)">
		<g id="Group_131" transform="translate(1.579 1.579)">
			<g id="Group_130">
				<g id="Group_137">
					<path id="Path_723" class="st1" d="M-204.4-36.5c0-8.4,6.8-15.2,15.3-15.2c0.1,0,0.3,0,0.4,0c4.7-0.1,9.2,2,12.2,5.6l-2.2,1.7
						c-2.5-3-6.2-4.7-10.1-4.7c-7-0.2-12.8,5.3-13,12.3s5.3,12.8,12.3,13c0.2,0,0.5,0,0.7,0c4.2,0,8.2-2.1,10.6-5.5l0.1-0.1v-7h2.8
						v7.9c-3,4.5-8.1,7.2-13.5,7.2c-8.4,0.3-15.4-6.3-15.7-14.7C-204.4-36.2-204.4-36.3-204.4-36.5 M-200.8-36.5
						c0-6.4,5.2-11.7,11.6-11.7c0.1,0,0.3,0,0.4,0c3.6-0.1,7.1,1.5,9.4,4.3l-2,1.6c-1.8-2.2-4.5-3.4-7.3-3.4c-5-0.1-9.2,3.8-9.3,8.8
						c0,0.1,0,0.3,0,0.4c0,5.1,4.2,9.2,9.4,9.2c2.7,0,5.3-1.2,7-3.3v-5.9h2.7v6.8c-2.3,3.1-5.9,4.9-9.8,5c-6.4,0.2-11.8-4.9-12-11.3
						C-200.8-36.2-200.8-36.4-200.8-36.5"/>
					<path id="Path_724" class="st1" d="M-168.7-51.1h2.7v29.2h-2.7V-51.1z M-165.1-51.1h2.8v29.2h-2.8V-51.1z"/>
					<path id="Path_725" class="st1" d="M-158.8-51.1h3l13.2,25.3l13.1-25.3h3l-16.1,30.4L-158.8-51.1z M-154.7-51.1h3.1l9.1,18.1
						l9.2-18.1h3l-12.1,23.3L-154.7-51.1z"/>
					<path id="Path_726" class="st1" d="M-122.8-51.1h23v2.5h-20.3v24.3h20.4v2.4h-23.1V-51.1z M-119.2-47.8h19.4v2.4h-16.7v5.1
						h11.7v2.4h-14.5L-119.2-47.8z M-119.2-36.9h14.5v2.4h-11.7v6.8h16.7v2.5h-19.5V-36.9z"/>
					<path id="Path_727" class="st1" d="M-81.7-51.1h13.6c6.8,0,11,3.9,11,9.8s-3.8,9.7-10.6,9.7h-7.5v9.7H-78V-34h10
						c4.9,0,7.9-2.8,7.9-7.3s-3.2-7.3-8.1-7.3H-79v26.8h-2.7V-51.1z M-78.1-47.8h9.9c4.5,0,7.2,2.5,7.2,6.4c0,4-2.6,6.4-7,6.4h-10.1
						V-47.8z M-68.1-37.3c2.1,0.3,4.1-1.2,4.4-3.4c0-0.2,0-0.5,0-0.7c0.1-2.1-1.6-4-3.7-4.1c-0.2,0-0.4,0-0.7,0h-7.2v8.1h7.2
						C-68.1-37.4-68.1-37.3-68.1-37.3z"/>
					<path id="Path_728" class="st1" d="M-42.5-52.3l16.7,30.4h-2.9l-13.9-25.4l-14,25.4h-2.9L-42.5-52.3z M-51.1-29.8h17l4.4,8
						h-2.9l-3.1-5.8h-13.6l-3.1,5.8h-3L-51.1-29.8z M-42.6-45.3l8,14.6h-16L-42.6-45.3z M-38.6-33l-4-7.4l-3.9,7.4H-38.6z"/>
					<path id="Path_729" class="st1" d="M-22.3-51.1h2.7v29.2h-2.7V-51.1z M-18.6-51.1h3.1l14.4,19.6v-19.6h2.7v27.6L-18.6-51.1z
						 M-18.6-49.5L1.6-21.9h-3l-14.5-19.6v19.6h-2.8L-18.6-49.5z M2.6-51.1h2.7v29.2H2.6V-51.1z"/>
					<path id="Path_730" class="st1" d="M13.2-51.1l9.9-0.1c10.5-0.1,17.1,6.2,17.1,14.7s-6.6,14.6-17,14.6h-9.9L13.2-51.1z
						 M23.1-24.4c8.9,0,14.3-4.6,14.3-12.1c0-7.6-5.5-12.3-14.3-12.3h-7.2v24.4H23.1z M16.8-47.8h6.3c8.3,0,13.4,4.3,13.4,11.4
						c0,6.9-5,11.1-13.4,11.2h-6.3V-47.8z M23.1-27.8c7.4,0,10.7-3.3,10.7-8.7s-3.3-8.8-10.7-8.9h-3.5v17.7L23.1-27.8z"/>
					<path id="Path_731" class="st1" d="M57.6-52.3l16.7,30.4h-2.9L57.6-47.2l-14,25.4h-2.9L57.6-52.3z M49-29.8h17l4.4,8h-2.9
						l-3.1-5.8H50.8l-3.1,5.8h-3L49-29.8z M57.6-45.3l8,14.6h-16L57.6-45.3z M61.5-33l-4-7.4L53.6-33H61.5z"/>
					<path id="Path_732" class="st1" d="M105.7-25.3l-0.8,0.8c-2,1.9-4.6,2.9-7.4,3c-6.4,0-10-4-10-9.1c0-2.6,1.3-5.1,3.5-6.5
						l1.4-1.1c-2.1-2.1-3.1-3.6-3.1-5.9c0-4.1,3.3-7.4,8.2-7.4c5.2,0,8.4,3.2,8.4,7.4c0,3-1.3,4.6-4.3,6.9l3.7,3.7l3.1-3.7l1.7,1.5
						l-4.7,5.5l-7.8-7.5l2-1.2c2.7-1.6,3.7-3.1,3.7-5.4c0-3.1-2.5-5.2-5.9-5.2c-3-0.2-5.5,2-5.8,4.9c0,0.1,0,0.2,0,0.3
						c0,1.9,1.1,3.2,2.9,4.9l1.6,1.5L94-36.5c-2.3,1.1-3.8,3.4-4,5.9c0,4.1,3,6.8,7.5,6.8c2.8-0.1,5.3-1.5,6.9-3.7l1.1-1.3l5.7,5.5
						l-1.7,1.9L105.7-25.3z M90.9-30.6c0.1-2.2,1.5-4.2,3.5-5.1l2.4-1.4l8,7.7l-1.1,1.3c-1.4,2-3.7,3.3-6.2,3.4
						C93.5-24.7,90.9-27,90.9-30.6 M95.2-40c-2-1.9-2.6-2.9-2.6-4.2c0.1-2.5,2.1-4.4,4.6-4.4c0.1,0,0.2,0,0.3,0c3,0,5,1.8,5,4.3
						c0,2-0.9,3.2-3.3,4.6L97-38.3L95.2-40z M101.1-28.6l0.7-0.7l-5.3-5.1l-0.9,0.6c-1.2,0.6-2.1,1.8-2.2,3.2c0,2,1.6,3.6,3.7,3.6
						c0.1,0,0.3,0,0.4,0C98.9-27,100.2-27.6,101.1-28.6 M100-44.3c0-1.4-1-2.2-2.5-2.2c-1.2-0.2-2.3,0.7-2.5,1.9c0,0.1,0,0.2,0,0.3
						c0,1.1,0.9,2.1,2.3,3.3C98.9-42.1,100-42.8,100-44.3 M106.1-29.5l4.7-5.5l1.7,1.6l-3.3,3.8l4.1,3.9l-1.6,1.8L106.1-29.5z"/>
					<path id="Path_733" class="st1" d="M-270.1,2.7c0-8.4,6.8-15.2,15.3-15.2c0.1,0,0.3,0,0.4,0c4.7-0.1,9.2,2,12.2,5.6l-2.1,1.7
						c-2.5-3-6.2-4.7-10.1-4.7c-7-0.2-12.8,5.3-13,12.3s5.3,12.8,12.3,13c0.2,0,0.5,0,0.7,0c4.2,0,8.2-2.1,10.6-5.5l0.1-0.1v-7h2.8
						v7.9c-3,4.5-8.1,7.2-13.5,7.2c-8.4,0.3-15.4-6.3-15.7-14.7C-270.1,3-270.1,2.8-270.1,2.7 M-266.5,2.7c0-6.4,5.2-11.7,11.6-11.7
						c0.1,0,0.3,0,0.4,0c3.6-0.1,7.1,1.5,9.4,4.3l-2,1.6c-1.8-2.2-4.5-3.4-7.3-3.4c-5.1,0-9.2,4.1-9.2,9.2s4.1,9.2,9.2,9.2l0,0
						c2.7,0,5.3-1.2,7.1-3.3V2.7h2.7v6.8c-2.3,3.1-5.9,4.9-9.8,5c-6.4,0.2-11.8-4.9-12-11.3C-266.5,3-266.5,2.8-266.5,2.7"/>
					<path id="Path_734" class="st1" d="M-234.5-12h23v2.5h-20.3v24.3h20.4v2.4h-23.1L-234.5-12L-234.5-12z M-230.9-8.6h19.4v2.4
						h-16.7V-1h11.7v2.4H-231v-10H-230.9z M-230.9,2.3h14.5v2.4h-11.7v6.8h16.7V14h-19.5V2.3z"/>
					<path id="Path_735" class="st1" d="M-207.7-12h24.9v2.5h-24.9V-12z M-198.4-6.1h-9.3v-2.5h12v25.8h-2.7V-6.1z M-194.8-8.6h12
						v2.5h-9.3v23.4h-2.7V-8.6z"/>
					<path id="Path_736" class="st1" d="M-166.6-12h2.7v29.2h-2.7V-12z M-160.2-0.4v17.6h-2.7v-27.3l13,23.5L-137-10v27.3h-2.7V-0.3
						l-10.2,18.5L-160.2-0.4z M-163-12h2.7l10.2,18.7l10.5-18.7h2.6l-13,23.5L-163-12z M-136.1-12h2.7v29.2h-2.7V-12z"/>
					<path id="Path_737" class="st1" d="M-127.1,2.6c-0.3-8.7,6.5-15.9,15.2-16.2C-103.3-13.8-96-7-95.8,1.6
						c0.3,8.7-6.5,15.9-15.2,16.2c-0.2,0-0.3,0-0.5,0c-8.4,0.3-15.4-6.3-15.7-14.7C-127.1,3-127.1,2.8-127.1,2.6 M-98.5,2.6
						c0.2-7.2-5.5-13.1-12.7-13.2c-7.2-0.2-13.1,5.5-13.2,12.7c-0.2,7.2,5.5,13.1,12.7,13.2c0.1,0,0.2,0,0.3,0
						c6.9,0.2,12.7-5.2,12.9-12.2C-98.5,3-98.5,2.8-98.5,2.6 M-123.5,2.6c-0.2-6.7,5.1-12.2,11.8-12.3c6.7-0.2,12.2,5.1,12.3,11.8
						c0.2,6.7-5.1,12.2-11.8,12.3c-0.1,0-0.2,0-0.3,0c-6.4,0.2-11.8-4.8-12-11.2C-123.5,3-123.5,2.8-123.5,2.6 M-102.2,2.6
						c0.1-5.1-4.1-9.3-9.2-9.4c-5.1-0.1-9.3,4.1-9.4,9.2s4.1,9.3,9.2,9.4h0.1c5,0.1,9.2-3.8,9.3-8.8C-102.2,2.9-102.2,2.8-102.2,2.6
						"/>
					<path id="Path_738" class="st1" d="M-89.5-12h13.9c6.8,0,11,3.4,11,9.3c0,5.7-3.4,8.7-9.8,8.9l11,11H-67L-79.6,4.1h4.2
						c4.9,0,7.9-2.2,7.9-6.8c0-4.5-3.2-6.9-8.1-6.9h-11.2v26.8h-2.7L-89.5-12z M-85.9-8.6h10.3c4.5,0,7.2,2,7.2,6s-2.6,5.8-7,5.8
						h-6.4l13.5,14h-3.6L-83.1,5.3v11.9h-2.8V-8.6z M-75.1,0.9c2.4,0,4-1.2,4-3.6c0-2.3-1.5-3.6-4-3.6h-8v7.2
						C-83.1,0.9-75.1,0.9-75.1,0.9z"/>
					<path id="Path_739" class="st1" d="M-58.1-12h23v2.5h-20.3v24.3H-35v2.4h-23.1V-12z M-54.4-8.6H-35v2.4h-16.7V-1H-40v2.4h-14.5
						L-54.4-8.6z M-54.4,2.3H-40v2.4h-11.7v6.8H-35V14h-19.5L-54.4,2.3z"/>
					<path id="Path_740" class="st1" d="M-17-12H5.4v2.5h-19.6v26.7H-17V-12z M-13.3-8.6H5.4v2.4h-15.9V-1h11v2.4h-13.7L-13.3-8.6z
						 M-13.3,2.3H0.4v2.4h-11v12.6h-2.8L-13.3,2.3z"/>
					<path id="Path_741" class="st1" d="M8.1,2.6C7.8-6,14.6-13.3,23.3-13.5C31.9-13.8,39.2-7,39.4,1.6c0.3,8.7-6.5,15.9-15.2,16.2
						c-0.2,0-0.3,0-0.5,0C15.3,18.1,8.3,11.5,8,3.1C8.1,3,8.1,2.8,8.1,2.6 M36.7,2.6c0.1-7.1-5.5-13-12.7-13.2
						c-7.2-0.2-13.1,5.5-13.2,12.7c-0.2,7.2,5.5,13.1,12.7,13.2c0.1,0,0.2,0,0.3,0c6.9,0.2,12.7-5.2,12.9-12.2
						C36.7,3,36.7,2.8,36.7,2.6 M11.7,2.6C11.5-4,16.8-9.5,23.5-9.7S35.7-4.6,35.8,2.1C36,8.8,30.7,14.3,24,14.4c-0.1,0-0.2,0-0.3,0
						c-6.4,0.2-11.8-4.8-12-11.2C11.7,3,11.7,2.8,11.7,2.6 M33,2.6c0.1-5.1-4.1-9.3-9.2-9.4c-5.1-0.1-9.3,4.1-9.4,9.2
						s4.1,9.3,9.2,9.4h0.1c5,0.1,9.2-3.8,9.3-8.8C33,2.9,33,2.8,33,2.6"/>
					<path id="Path_742" class="st1" d="M45.7-12h13.9c6.8,0,11,3.4,11,9.3c0,5.7-3.4,8.7-9.8,8.9l11,11h-3.7L55.5,4.1h4.2
						c4.9,0,7.9-2.2,7.9-6.8c0-4.5-3.2-6.9-8.1-6.9H48.4v26.8h-2.7V-12z M49.3-8.6h10.3c4.5,0,7.2,2,7.2,6s-2.6,5.8-7,5.8h-6.4
						l13.5,14h-3.6L52.1,5.3v11.9h-2.8V-8.6z M60.1,0.9c2.4,0,4-1.2,4-3.6c0-2.3-1.5-3.6-4-3.6h-8v7.2C52.1,0.9,60.1,0.9,60.1,0.9z"
						/>
					<path id="Path_743" class="st1" d="M96.3,5.4L84-12h3.1L99,4.6v12.5h-2.7V5.4z M88.4-12h3.3l7.9,11.3l7.8-11.3h3.3L99.5,3.8
						L88.4-12z M100,4.7L111.8-12h3.2L102.7,5.3v11.8H100V4.7z"/>
					<path id="Path_744" class="st1" d="M115.5,2.6c-0.3-8.6,6.5-15.9,15.2-16.1c8.7-0.3,15.9,6.5,16.2,15.2s-6.5,15.9-15.2,16.2
						c-0.2,0-0.3,0-0.5,0c-8.4,0.3-15.4-6.3-15.7-14.7C115.5,3,115.5,2.8,115.5,2.6 M144.1,2.6c0.2-7.2-5.5-13.1-12.7-13.2
						c-7.2-0.2-13.1,5.5-13.2,12.7c-0.2,7.2,5.5,13.1,12.7,13.2c0.1,0,0.2,0,0.3,0c6.9,0.2,12.7-5.2,12.9-12.2
						C144.1,3,144.1,2.8,144.1,2.6 M119.1,2.6c-0.2-6.7,5.1-12.2,11.8-12.3c6.7-0.2,12.2,5.1,12.3,11.8c0.2,6.7-5.1,12.2-11.8,12.3
						c-0.1,0-0.2,0-0.3,0c-6.4,0.2-11.8-4.8-12-11.2C119.1,3,119.1,2.8,119.1,2.6 M140.4,2.6c0.1-5.1-4.1-9.3-9.2-9.4
						c-5.1-0.1-9.3,4.1-9.4,9.2s4.1,9.3,9.2,9.4h0.1c5,0.1,9.2-3.8,9.3-8.8C140.4,2.9,140.4,2.8,140.4,2.6"/>
					<path id="Path_745" class="st1" d="M152.5,2.9V-12h2.7V3c0,7.9,3.9,12.2,11.1,12.2c7.2,0,11.1-4.3,11.1-12.1V-12h2.8V3
						c0,9-4.8,14.6-13.9,14.6C157.2,17.6,152.5,12,152.5,2.9 M156.2,3v-15h2.8V2.9c0,5.5,2.2,8.7,7.4,8.7c5.3,0,7.4-3.2,7.4-8.7
						v-14.8h2.8V3c0,7.3-3.6,11.2-10.2,11.2S156.2,10.3,156.2,3"/>
				</g>
			</g>
		</g>
		<path id="Path_746" class="st0" d="M-205.3-37.4c0-8.4,6.8-15.2,15.3-15.2c0.1,0,0.3,0,0.4,0c4.7-0.1,9.2,2,12.2,5.6l-2.2,1.7
			c-2.5-3-6.2-4.7-10.1-4.7c-7-0.2-12.8,5.3-13,12.3s5.3,12.8,12.3,13c0.2,0,0.5,0,0.7,0c4.2,0,8.2-2.1,10.6-5.5l0.1-0.1v-7h2.8v7.9
			c-3,4.5-8.1,7.2-13.5,7.2C-198-22-205-28.6-205.3-37C-205.3-37.1-205.3-37.3-205.3-37.4 M-201.7-37.4c0-6.4,5.2-11.7,11.6-11.7
			c0.1,0,0.3,0,0.4,0c3.6-0.1,7.1,1.5,9.4,4.3l-2,1.6c-1.8-2.2-4.5-3.4-7.3-3.4c-5-0.1-9.2,3.8-9.3,8.8c0,0.1,0,0.3,0,0.4
			c0,5.1,4.2,9.2,9.4,9.2c2.7,0,5.3-1.2,7-3.3v-5.9h2.7v6.8c-2.3,3.1-5.9,5-9.8,5c-6.4,0.2-11.8-4.9-12-11.3
			C-201.7-37.1-201.7-37.3-201.7-37.4"/>
		<path id="Path_747" class="st0" d="M-169.7-52.1h2.7v29.2h-2.7V-52.1z M-166-52.1h2.8v29.2h-2.8V-52.1z"/>
		<path id="Path_748" class="st0" d="M-159.7-52.1h3l13.2,25.3l13.1-25.3h3l-16.1,30.4L-159.7-52.1z M-155.6-52.1h3.1l9.1,18.1
			l9.2-18.1h3l-12.1,23.3L-155.6-52.1z"/>
		<path id="Path_749" class="st0" d="M-123.8-52.1h23v2.5h-20.3v24.3h20.4v2.4h-23.1V-52.1z M-120.2-48.7h19.4v2.4h-16.7v5.1h11.7
			v2.4h-14.5v-9.9C-120.3-48.7-120.2-48.7-120.2-48.7z M-120.2-37.8h14.5v2.4h-11.7v6.8h16.7v2.5h-19.5V-37.8z"/>
		<path id="Path_750" class="st0" d="M-82.7-52.1h13.6c6.8,0,11,3.9,11,9.8s-3.8,9.7-10.6,9.7h-7.5v9.7H-79V-35h10.1
			c4.9,0,7.9-2.8,7.9-7.3s-3.2-7.3-8.1-7.3H-80v26.8h-2.7V-52.1z M-79-48.7h9.9c4.5,0,7.2,2.5,7.2,6.4c0,4-2.6,6.4-7,6.4H-79V-48.7z
			 M-69-38.2c2.1,0.3,4.1-1.2,4.3-3.4c0-0.2,0-0.5,0-0.7c0.1-2.1-1.6-4-3.7-4.1c-0.2,0-0.4,0-0.7,0h-7.2v8.1L-69-38.2z"/>
		<path id="Path_751" class="st0" d="M-43.4-53.2l16.7,30.4h-2.9l-13.9-25.4l-14,25.4h-2.9L-43.4-53.2z M-52-30.8h17l4.4,8h-2.9
			l-3.1-5.8h-13.6l-3.1,5.8h-3L-52-30.8z M-43.5-46.3l8,14.6h-16L-43.5-46.3z M-39.6-33.9l-4-7.4l-3.9,7.4H-39.6z"/>
		<path id="Path_752" class="st0" d="M-23.2-52.1h2.7v29.2h-2.7V-52.1z M-19.5-52.1h3.1L-2-32.4V-52h2.7v27.6L-19.5-52.1z
			 M-19.5-50.5L0.7-22.9h-3l-14.5-19.6v19.6h-2.8L-19.5-50.5z M1.6-52.1h2.7v29.2H1.6V-52.1z"/>
		<path id="Path_753" class="st0" d="M12.3-52.1l9.9-0.1c10.5-0.1,17,6.2,17,14.7s-6.6,14.6-17,14.6h-9.9
			C12.3-22.9,12.3-52.1,12.3-52.1z M22.2-25.3c8.9,0,14.3-4.6,14.3-12.1c0-7.6-5.5-12.3-14.3-12.3H15v24.4
			C15-25.3,22.2-25.3,22.2-25.3z M15.9-48.7h6.3c8.3,0,13.4,4.3,13.4,11.4c0,6.9-5,11.1-13.4,11.2h-6.3L15.9-48.7z M22.2-28.7
			c7.4,0,10.7-3.3,10.7-8.7s-3.3-8.8-10.7-8.9h-3.5v17.7L22.2-28.7z"/>
		<path id="Path_754" class="st0" d="M56.7-53.2l16.7,30.4h-2.9L56.6-48.2l-14,25.4h-2.9L56.7-53.2z M48.1-30.8h17l4.4,8h-2.9
			l-3.1-5.8H49.8l-3.1,5.8h-3L48.1-30.8z M56.6-46.3l8,14.6h-16L56.6-46.3z M60.6-33.9l-4-7.4l-3.9,7.4H60.6z"/>
		<path id="Path_755" class="st0" d="M104.7-26.2l-0.8,0.8c-2,1.9-4.6,2.9-7.4,3c-6.4,0-10-4-10-9.1c0-2.6,1.3-5.1,3.5-6.5l1.4-1.1
			c-2.1-2.1-3.1-3.6-3.1-5.9c0-4.1,3.3-7.4,8.2-7.4c5.2,0,8.4,3.2,8.4,7.4c0,3-1.3,4.6-4.3,6.9l3.7,3.7l3.1-3.7l1.7,1.5l-4.7,5.5
			l-7.8-7.5l2-1.2c2.7-1.6,3.7-3.1,3.7-5.4c0-3.1-2.5-5.2-5.9-5.2c-3-0.2-5.5,2-5.8,4.9c0,0.1,0,0.2,0,0.3c0,1.9,1.1,3.2,2.9,4.9
			l1.6,1.5L93-37.5c-2.3,1.1-3.8,3.4-4,5.9c0,4.1,3,6.8,7.5,6.8c2.8-0.1,5.3-1.5,6.9-3.7l1.1-1.3l5.7,5.5l-1.7,1.9L104.7-26.2z
			 M90-31.5c0.1-2.2,1.5-4.2,3.5-5.1l2.4-1.4l8,7.7l-1.1,1.3c-1.4,2-3.7,3.3-6.2,3.4C92.6-25.6,90-28,90-31.5 M94.2-40.9
			c-2-1.9-2.6-2.9-2.6-4.2c0.1-2.5,2.1-4.4,4.6-4.4c0.1,0,0.2,0,0.3,0c3,0,5,1.8,5,4.3c0,2-0.9,3.2-3.3,4.6L96-39.2L94.2-40.9z
			 M100.2-29.6l0.7-0.7l-5.3-5.1l-0.9,0.6c-1.2,0.6-2.1,1.8-2.2,3.2c0,2,1.6,3.6,3.7,3.6c0.1,0,0.3,0,0.4,0
			C98-28,99.3-28.6,100.2-29.6 M99.1-45.2c0-1.4-1-2.2-2.6-2.2c-1.2-0.2-2.3,0.7-2.5,1.9c0,0.1,0,0.2,0,0.3c0,1.1,0.9,2.1,2.3,3.3
			C97.9-43,99.1-43.7,99.1-45.2 M105.1-30.4l4.7-5.5l1.7,1.6l-3.3,3.7l4.1,3.9l-1.6,1.8L105.1-30.4z"/>
		<path id="Path_756" class="st0" d="M-271,1.7c0-8.4,6.8-15.2,15.3-15.2c0.1,0,0.3,0,0.4,0c4.7-0.1,9.2,2,12.2,5.6l-2.2,1.7
			c-2.5-3-6.2-4.7-10.1-4.7c-7-0.2-12.8,5.3-13,12.3s5.3,12.8,12.3,13c0.2,0,0.5,0,0.7,0c4.2,0,8.2-2.1,10.6-5.5l0.1-0.1v-7h2.8v7.9
			c-3,4.5-8.1,7.2-13.5,7.2c-8.4,0.3-15.4-6.3-15.7-14.7C-271,2.1-271,1.9-271,1.7 M-267.4,1.8c0-6.4,5.2-11.7,11.6-11.7
			c0.1,0,0.3,0,0.4,0c3.6-0.1,7.1,1.5,9.4,4.3l-2,1.6c-1.8-2.2-4.5-3.4-7.3-3.4c-5.1,0-9.2,4.1-9.2,9.2s4.1,9.2,9.2,9.2l0,0
			c2.7,0,5.3-1.2,7.1-3.3V1.8h2.7v6.8c-2.3,3.1-5.9,4.9-9.8,5c-6.4,0.2-11.8-4.9-12-11.3C-267.4,2-267.4,1.9-267.4,1.8"/>
		<path id="Path_757" class="st0" d="M-235.4-12.9h23v2.5h-20.3v24.3h20.4v2.4h-23.1L-235.4-12.9L-235.4-12.9z M-231.8-9.5h19.4v2.4
			H-229V-2h11.7v2.4h-14.5V-9.5z M-231.8,1.3h14.5v2.4H-229v6.8h16.7V13h-19.5V1.3z"/>
		<path id="Path_758" class="st0" d="M-208.7-12.9h24.9v2.5h-24.9V-12.9z M-199.3-7.1h-9.3v-2.5h12v25.8h-2.7V-7.1z M-195.7-9.5h12
			V-7h-9.3v23.4h-2.7V-9.5z"/>
		<path id="Path_759" class="st0" d="M-167.6-12.9h2.7v29.2h-2.7V-12.9z M-161.2-1.3v17.6h-2.7V-11l13,23.5L-138-11v27.3h-2.7V-1.3
			l-10.2,18.5L-161.2-1.3z M-163.9-12.9h2.7L-151,5.8l10.4-18.7h2.6l-12.9,23.5L-163.9-12.9z M-137-12.9h2.7v29.2h-2.7V-12.9z"/>
		<path id="Path_760" class="st0" d="M-128,1.7c-0.3-8.7,6.5-15.9,15.2-16.2C-104.2-14.7-97-8-96.7,0.7s-6.5,15.9-15.2,16.2
			c-0.2,0-0.3,0-0.5,0c-8.4,0.3-15.4-6.3-15.7-14.7C-128,2-128,1.9-128,1.7 M-99.4,1.7c0.2-7.2-5.5-13.1-12.7-13.2
			c-7.2-0.2-13.1,5.5-13.2,12.7c-0.2,7.2,5.5,13.1,12.7,13.2c0.1,0,0.2,0,0.3,0c6.9,0.2,12.7-5.2,12.9-12.2
			C-99.4,2.1-99.4,1.9-99.4,1.7 M-124.4,1.7c-0.2-6.7,5.1-12.2,11.8-12.3s12.2,5.1,12.3,11.8s-5.1,12.2-11.8,12.3
			c-0.1,0-0.2,0-0.3,0c-6.4,0.2-11.8-4.8-12-11.2C-124.4,2.1-124.4,1.9-124.4,1.7 M-103.1,1.7c0.1-5.1-4.1-9.3-9.2-9.4
			c-5.1-0.1-9.3,4.1-9.4,9.2s4.1,9.3,9.2,9.4h0.1c5,0.1,9.2-3.8,9.3-8.8C-103.1,2-103.1,1.8-103.1,1.7"/>
		<path id="Path_761" class="st0" d="M-90.5-12.9h13.9c6.8,0,11,3.4,11,9.3c0,5.7-3.4,8.7-9.8,8.9l11,11H-68L-80.6,3.2h4.2
			c4.9,0,7.9-2.2,7.9-6.8c0-4.5-3.2-6.9-8.1-6.9h-11.2v26.8h-2.7L-90.5-12.9z M-86.8-9.6h10.3c4.5,0,7.2,2,7.2,6s-2.6,5.8-7,5.8
			h-6.4l13.5,14h-3.6L-84,4.4v11.9h-2.8V-9.6z M-76,0c2.4,0,4-1.2,4-3.6c0-2.3-1.5-3.6-4-3.6h-8V0H-76z"/>
		<path id="Path_762" class="st0" d="M-59-12.9h23v2.5h-20.3v24.3h20.4v2.4H-59V-12.9z M-55.4-9.5H-36v2.4h-16.7V-2H-41v2.4h-14.5
			L-55.4-9.5z M-55.4,1.3h14.5v2.4h-11.7v6.8h16.7V13h-19.5V1.3z"/>
		<path id="Path_763" class="st0" d="M-17.9-12.9H4.4v2.5h-19.6v26.7h-2.7L-17.9-12.9z M-14.3-9.5H4.4v2.4h-15.9V-2h11v2.4h-13.7
			L-14.3-9.5z M-14.3,1.3h13.7v2.4h-11v12.6h-2.8v-15C-14.4,1.3-14.3,1.3-14.3,1.3z"/>
		<path id="Path_764" class="st0" d="M7.2,1.7C6.9-7,13.7-14.2,22.3-14.5C31-14.7,38.2-8,38.5,0.7S32,16.6,23.3,16.9
			c-0.2,0-0.3,0-0.5,0C14.4,17.2,7.4,10.6,7.1,2.2C7.2,2,7.2,1.9,7.2,1.7 M35.8,1.7c0.2-7.2-5.5-13.1-12.7-13.2
			C15.9-11.7,10-6,9.9,1.2c-0.2,7.2,5.5,13.1,12.7,13.2c0.1,0,0.2,0,0.3,0c6.9,0.2,12.7-5.2,12.9-12.2C35.8,2.1,35.8,1.9,35.8,1.7
			 M10.8,1.7c-0.2-6.6,5.1-12.2,11.7-12.3c6.7-0.2,12.2,5.1,12.3,11.8S29.7,13.4,23,13.5c-0.1,0-0.2,0-0.3,0
			c-6.4,0.2-11.8-4.8-12-11.2C10.8,2.1,10.8,1.9,10.8,1.7 M32.1,1.7c0.1-5.1-4.1-9.3-9.2-9.4c-5.1-0.1-9.3,4.1-9.4,9.2
			c-0.1,5.1,4.1,9.3,9.2,9.4h0.1c5,0.1,9.2-3.8,9.3-8.8C32.1,2,32.1,1.8,32.1,1.7"/>
		<path id="Path_765" class="st0" d="M44.8-12.9h13.9c6.8,0,11,3.4,11,9.3c0,5.7-3.4,8.7-9.8,8.9l11,11h-3.7L54.6,3.2h4.2
			c4.9,0,7.9-2.2,7.9-6.8c0-4.5-3.2-6.9-8.1-6.9H47.5v26.8h-2.7V-12.9z M48.4-9.6h10.3c4.5,0,7.2,2,7.2,6s-2.6,5.8-7,5.8h-6.4
			l13.5,14h-3.6L51.2,4.4v11.9h-2.8V-9.6z M59.2,0c2.4,0,4-1.2,4-3.6c0-2.3-1.5-3.6-4-3.6h-8V0H59.2z"/>
		<path id="Path_766" class="st0" d="M95.4,4.4L83.1-12.9h3.1L98.1,3.7v12.5h-2.7V4.4z M87.5-12.9h3.3l7.9,11.3l7.9-11.3h3.3
			L98.6,2.9L87.5-12.9z M99,3.8l11.9-16.7h3.2L101.8,4.4v11.8H99V3.8z"/>
		<path id="Path_767" class="st0" d="M114.5,1.7c-0.3-8.7,6.5-15.9,15.2-16.2c8.7-0.3,15.9,6.5,16.2,15.2s-6.5,15.9-15.2,16.2
			c-0.2,0-0.3,0-0.5,0c-8.4,0.3-15.4-6.3-15.7-14.7C114.5,2,114.5,1.9,114.5,1.7 M143.1,1.7c0.2-7.2-5.5-13.1-12.7-13.2
			c-7.2-0.2-13.1,5.5-13.2,12.7c-0.2,7.2,5.5,13.1,12.7,13.2c0.1,0,0.2,0,0.3,0c6.9,0.2,12.7-5.2,12.9-12.2
			C143.1,2.1,143.1,1.9,143.1,1.7 M118.1,1.7c-0.2-6.7,5.1-12.2,11.8-12.3c6.7-0.2,12.2,5.1,12.3,11.8c0.2,6.7-5.1,12.2-11.8,12.3
			c-0.1,0-0.2,0-0.3,0c-6.4,0.2-11.8-4.8-12-11.2C118.1,2.1,118.1,1.9,118.1,1.7 M139.5,1.7c0.1-5.1-4.1-9.3-9.2-9.4
			c-5.1-0.1-9.3,4.1-9.4,9.2s4.1,9.3,9.2,9.4h0.1c5,0.1,9.2-3.8,9.3-8.8C139.5,2,139.5,1.8,139.5,1.7"/>
		<path id="Path_768" class="st0" d="M151.6,2v-14.9h2.7V2c0,7.9,3.9,12.2,11.1,12.2s11.1-4.3,11.1-12.1v-15h2.8V2
			c0,9-4.8,14.6-13.9,14.6C156.3,16.7,151.6,11.1,151.6,2 M155.2,2v-14.9h2.8V2c0,5.5,2.2,8.7,7.4,8.7c5.3,0,7.4-3.2,7.4-8.7v-14.9
			h2.8v15c0,7.3-3.6,11.2-10.2,11.2S155.2,9.4,155.2,2"/>
	</g>
</g>
</svg>
