<svg xmlns="http://www.w3.org/2000/svg" width="25.391" height="23.87" viewBox="0 0 25.391 23.87">
  <path id="Path_2315" data-name="Path 2315" d="M24.7,11.245C18.462,11.245,13.386,6.51,13.386.69a.69.69,0,1,0-1.38,0c0,5.82-5.076,10.554-11.315,10.554a.69.69,0,0,0,0,1.38c6.239,0,11.315,4.735,11.315,10.555a.69.69,0,1,0,1.38,0c0-5.821,5.076-10.555,11.315-10.555a.69.69,0,0,0,0-1.38M12.7,19.331a12.375,12.375,0,0,0-7.791-7.4,12.371,12.371,0,0,0,7.791-7.4,12.371,12.371,0,0,0,7.791,7.4,12.375,12.375,0,0,0-7.791,7.4" fill="#fff"/>
</svg>
