<svg xmlns="http://www.w3.org/2000/svg" xmlns:xlink="http://www.w3.org/1999/xlink" width="23.349" height="23.65" viewBox="0 0 23.349 23.65">
  <defs>
    <clipPath id="clip-path">
      <rect id="Rectangle_99" data-name="Rectangle 99" width="23.349" height="23.65" fill="none"/>
    </clipPath>
  </defs>
  <g id="Group_24" data-name="Group 24" transform="translate(0 0)">
    <g id="Group_15" data-name="Group 15" transform="translate(0 0)" clip-path="url(#clip-path)">
      <path id="Path_10" data-name="Path 10" d="M23.349,11.675A1.048,1.048,0,0,0,22.3,10.627a9.589,9.589,0,0,1-9.577-9.578,1.048,1.048,0,1,0-2.1,0,9.59,9.59,0,0,1-9.578,9.578A1.048,1.048,0,0,0,0,11.675a1.06,1.06,0,0,0,.015.15,1.06,1.06,0,0,0-.015.15,1.049,1.049,0,0,0,1.048,1.048A9.589,9.589,0,0,1,10.626,22.6a1.048,1.048,0,1,0,2.1,0A9.589,9.589,0,0,1,22.3,13.023a1.049,1.049,0,0,0,1.048-1.048,1.06,1.06,0,0,0-.015-.15,1.06,1.06,0,0,0,.015-.15m-11.674,6.1a11.741,11.741,0,0,0-6.138-5.95,11.745,11.745,0,0,0,6.138-5.95,11.745,11.745,0,0,0,6.138,5.95,11.741,11.741,0,0,0-6.138,5.95" transform="translate(0 0)" fill="#bd0520"/>
    </g>
  </g>
</svg>
