<svg xmlns="http://www.w3.org/2000/svg" width="11.301" height="11.447" viewBox="0 0 11.301 11.447">
  <path id="Path_10" data-name="Path 10" d="M11.3,5.651a.507.507,0,0,0-.507-.507A4.641,4.641,0,0,1,6.158.507a.507.507,0,1,0-1.015,0A4.641,4.641,0,0,1,.507,5.143.507.507,0,0,0,0,5.651a.513.513,0,0,0,.007.072A.513.513,0,0,0,0,5.8.508.508,0,0,0,.507,6.3a4.641,4.641,0,0,1,4.636,4.636.507.507,0,1,0,1.015,0A4.641,4.641,0,0,1,10.794,6.3.508.508,0,0,0,11.3,5.8a.513.513,0,0,0-.007-.072.513.513,0,0,0,.007-.072M5.651,8.6A5.683,5.683,0,0,0,2.68,5.723a5.685,5.685,0,0,0,2.971-2.88,5.685,5.685,0,0,0,2.971,2.88A5.683,5.683,0,0,0,5.651,8.6" fill="#fc9006"/>
</svg>
