<svg xmlns="http://www.w3.org/2000/svg" xmlns:xlink="http://www.w3.org/1999/xlink" width="30.59" height="31.622" viewBox="0 0 30.59 31.622">
  <defs>
    <clipPath id="clip-path">
      <rect id="Rectangle_98" data-name="Rectangle 98" width="30.59" height="31.622" fill="none"/>
    </clipPath>
  </defs>
  <g id="Group_21" data-name="Group 21" transform="translate(0 -0.001)">
    <g id="Group_13" data-name="Group 13" transform="translate(0 0)" clip-path="url(#clip-path)">
      <path id="Path_2" data-name="Path 2" d="M26.3,12.169a1.1,1.1,0,0,1-1.1-1.1V1.1a1.1,1.1,0,0,1,2.208,0v9.961a1.1,1.1,0,0,1-1.1,1.1" transform="translate(-11.007 0)" fill="#fc9006"/>
      <path id="Path_3" data-name="Path 3" d="M26.3,46.708a1.1,1.1,0,0,1-1.1-1.1V35.643a1.1,1.1,0,1,1,2.208,0V45.6a1.1,1.1,0,0,1-1.1,1.1" transform="translate(-11.007 -15.086)" fill="#fc9006"/>
      <path id="Path_4" data-name="Path 4" d="M44.043,28.321H34.431a1.1,1.1,0,1,1,0-2.208h9.612a1.1,1.1,0,0,1,0,2.208" transform="translate(-14.557 -11.406)" fill="#fc9006"/>
      <path id="Path_5" data-name="Path 5" d="M10.716,28.321H1.1a1.1,1.1,0,0,1,0-2.208h9.612a1.1,1.1,0,0,1,0,2.208" transform="translate(0 -11.406)" fill="#fc9006"/>
      <path id="Path_6" data-name="Path 6" d="M8.483,41.324a1.1,1.1,0,0,1-.794-1.87l6.8-7.043a1.1,1.1,0,0,1,1.589,1.533l-6.8,7.043a1.1,1.1,0,0,1-.794.337" transform="translate(-3.223 -14.009)" fill="#fc9006"/>
      <path id="Path_7" data-name="Path 7" d="M32.052,16.9a1.1,1.1,0,0,1-.794-1.87l6.8-7.045a1.1,1.1,0,1,1,1.589,1.533l-6.8,7.045a1.1,1.1,0,0,1-.794.337" transform="translate(-13.518 -3.341)" fill="#fc9006"/>
      <path id="Path_8" data-name="Path 8" d="M15.278,16.9a1.1,1.1,0,0,1-.795-.337l-6.8-7.045a1.1,1.1,0,0,1,1.59-1.533l6.8,7.045a1.1,1.1,0,0,1-.795,1.87" transform="translate(-3.223 -3.341)" fill="#fc9006"/>
      <path id="Path_9" data-name="Path 9" d="M38.847,41.323a1.1,1.1,0,0,1-.795-.338l-6.8-7.044a1.1,1.1,0,0,1,1.59-1.533l6.795,7.045a1.1,1.1,0,0,1-.795,1.87" transform="translate(-13.518 -14.009)" fill="#fc9006"/>
    </g>
  </g>
</svg>
