<svg xmlns="http://www.w3.org/2000/svg" xmlns:xlink="http://www.w3.org/1999/xlink" width="41" height="42.384" viewBox="0 0 41 42.384">
  <defs>
    <clipPath id="clip-path">
      <rect id="Rectangle_98" data-name="Rectangle 98" width="41" height="42.384" fill="#f26a21"/>
    </clipPath>
  </defs>
  <g id="Group_19" data-name="Group 19" transform="translate(0 -0.001)">
    <g id="Group_13" data-name="Group 13" transform="translate(0 0)" clip-path="url(#clip-path)">
      <path id="Path_2" data-name="Path 2" d="M26.68,16.31a1.48,1.48,0,0,1-1.48-1.48V1.48a1.48,1.48,0,1,1,2.959,0V14.83a1.48,1.48,0,0,1-1.48,1.48" transform="translate(-6.177 0)" fill="#f26a21"/>
      <path id="Path_3" data-name="Path 3" d="M26.68,50.85a1.48,1.48,0,0,1-1.48-1.48V36.019a1.48,1.48,0,1,1,2.959,0V49.37a1.48,1.48,0,0,1-1.48,1.48" transform="translate(-6.177 -8.466)" fill="#f26a21"/>
      <path id="Path_4" data-name="Path 4" d="M47.69,29.072H34.807a1.48,1.48,0,1,1,0-2.959H47.69a1.48,1.48,0,0,1,0,2.959" transform="translate(-8.169 -6.401)" fill="#f26a21"/>
      <path id="Path_5" data-name="Path 5" d="M14.363,29.072H1.48a1.48,1.48,0,1,1,0-2.959H14.363a1.48,1.48,0,0,1,0,2.959" transform="translate(0 -6.401)" fill="#f26a21"/>
      <path id="Path_6" data-name="Path 6" d="M8.859,44.472a1.48,1.48,0,0,1-1.064-2.507l9.108-9.44a1.48,1.48,0,0,1,2.13,2.055L9.923,44.02a1.474,1.474,0,0,1-1.064.452" transform="translate(-1.809 -7.862)" fill="#f26a21"/>
      <path id="Path_7" data-name="Path 7" d="M32.428,20.049a1.479,1.479,0,0,1-1.064-2.507L40.472,8.1a1.48,1.48,0,1,1,2.13,2.055L33.492,19.6a1.476,1.476,0,0,1-1.064.452" transform="translate(-7.586 -1.875)" fill="#f26a21"/>
      <path id="Path_8" data-name="Path 8" d="M17.966,20.049A1.477,1.477,0,0,1,16.9,19.6L7.793,10.155A1.48,1.48,0,0,1,9.924,8.1l9.108,9.442a1.48,1.48,0,0,1-1.065,2.507" transform="translate(-1.809 -1.875)" fill="#f26a21"/>
      <path id="Path_9" data-name="Path 9" d="M41.535,44.472a1.472,1.472,0,0,1-1.065-.453l-9.108-9.441a1.48,1.48,0,0,1,2.131-2.055L42.6,41.965a1.48,1.48,0,0,1-1.065,2.506" transform="translate(-7.586 -7.862)" fill="#f26a21"/>
    </g>
  </g>
</svg>
